<svg height="577" viewBox="0 0 1920 577" width="1920" xmlns="http://www.w3.org/2000/svg" xmlns:xlink="http://www.w3.org/1999/xlink"><linearGradient gradientUnits="objectBoundingBox" x1=".5" x2=".5" y2="1"><stop offset="0" stop-color="#e6f0ff"/><stop offset=".648" stop-color="#e7f1ff"/><stop offset="1" stop-color="#fff"/></linearGradient><clipPath id="a"><path d="m8057 17503h1920v577h-1920z"/></clipPath><clipPath id="b"><path d="m0 0h1920v576.717h-1920z"/></clipPath><g clip-path="url(#a)" transform="translate(-8057 -17503)"><path d="m0 0h1920v576.717h-1920z" fill="#e6f0ff" transform="translate(8057 17504)"/><g clip-path="url(#b)" fill="#fff" transform="translate(8057 17504)"><path d="m1909.194 778.825c-38.269 0-70.3-29.276-78.658-68.566-18.716 46.613-61.084 79.161-110.389 79.161-38.455 0-72.676-19.812-94.77-50.634-20.264 41.974-60.389 70.572-106.606 70.572-42.754 0-80.284-24.485-101.712-61.377-14.263 18.82-35.728 30.8-59.744 30.8-30.023 0-56.052-18.731-69.006-46.138-34.457 52.487-90.515 86.68-153.869 86.68-60.036 0-113.525-30.714-148.284-78.6-16.8 36.04-50.89 60.721-90.241 60.721-40.515 0-75.466-26.155-91.7-63.944-14.82 19.172-36.895 31.351-61.568 31.351-32.926 0-61.234-21.675-73.824-52.753-15.272 54.027-61.084 93.254-115.226 93.254-47.311 0-88.241-29.976-108.011-73.591-9.605 16.393-26.315 27.273-45.361 27.273-16.153 0-30.6-7.845-40.5-20.208-25.214 55.057-77.026 92.849-136.892 92.849-84.624 0-153.225-75.461-153.225-168.544v-351.9h1920.392v374.7c0 49.1-36.177 88.894-80.806 88.894z" transform="translate(-70 -741.879)"/><path d="m150.419 760.489c38.269 0 70.3-29.272 78.661-68.566 18.713 46.613 61.084 79.164 110.389 79.164 38.452 0 72.676-19.812 94.767-50.637 20.264 41.974 60.392 70.572 106.609 70.572 42.751 0 80.281-24.485 101.712-61.377 14.26 18.82 35.728 30.8 59.741 30.8 30.023 0 56.055-18.731 69.009-46.137 34.454 52.487 90.515 86.68 153.866 86.68 60.039 0 113.525-30.714 148.287-78.594 16.8 36.04 50.887 60.721 90.238 60.721 40.518 0 75.469-26.155 91.7-63.944 14.823 19.172 36.9 31.348 61.571 31.348 32.926 0 61.231-21.675 73.824-52.75 15.272 54.023 61.08 93.251 115.223 93.251 47.315 0 88.241-29.976 108.011-73.588 9.6 16.39 26.315 27.27 45.364 27.27 16.15 0 30.6-7.842 40.5-20.208 25.211 55.057 77.026 92.849 136.892 92.849 84.617.002 153.217-75.455 153.217-168.543v-351.9h-1920.387v374.7c0 49.095 36.178 88.889 80.806 88.889z" transform="translate(-70 -665.458)"/></g></g></svg>