<svg height="730.725" viewBox="0 0 927.513 730.725" width="927.513" xmlns="http://www.w3.org/2000/svg" xmlns:xlink="http://www.w3.org/1999/xlink"><clipPath id="a"><rect height="464.012" rx="5.962" width="258.644"/></clipPath><linearGradient id="b" gradientUnits="objectBoundingBox" x1="1.276" x2="-.276" y1=".131" y2=".869"><stop offset=".27" stop-color="#fff" stop-opacity=".4"/><stop offset="1" stop-color="#fff" stop-opacity=".2"/></linearGradient><linearGradient id="c" x1="1.355" x2="-.355" xlink:href="#b" y1=".147" y2=".853"/><clipPath id="d"><circle cx="44.621" cy="44.621" r="44.621" transform="matrix(.92 -.392 .392 .92 0 34.979)"/></clipPath><clipPath id="e"><path d="m549.272 118.006s-97.172 50.706-97.172 149.05c0 84.108 36.063 217.815 36.063 217.815h122.224s36.063-133.707 36.063-217.815c0-98.344-97.178-149.05-97.178-149.05z" transform="translate(-452.096 -118.006)"/></clipPath><g transform="translate(-373.037 -117.006)"><path d="m599.135 419.606a102.648 102.648 0 0 1 38.5 11.561c4.311 2.3 8.529 4.932 13.265 6.124s10.248.673 13.763-2.718c1.976-1.907 3.159-4.546 5.251-6.327 3.542-3.015 8.924-2.84 13.211-1.034s7.836 4.962 11.625 7.66c7.423 5.286 16.248 8.984 25.361 8.971s18.462-4.146 23.436-11.781 4.621-18.764-1.833-25.2c-9.985-9.963-29.875-6.6-36.771-18.907-1.4-2.5-2.023-5.363-3.154-8a22.968 22.968 0 0 0 -24.982-13.04c-9.77 2.026-17.948 10.5-27.911 9.968-4.024-.218-7.794-1.922-11.665-3.047-14.853-4.319-31.208.148-44.107 8.684s-22.87 20.77-32.034 33.229" fill="#e6f0ff" transform="translate(501.003 367.621)"/><path d="m564.1 387.855c25.789-4.984 51.975-9.07 78.212-7.856s65.129 11.346 91.427 38.27" fill="none" stroke="#fff" stroke-linejoin="round" transform="translate(505.437 387.199)"/><path d="m583.179 380.183c12.874 6.471 30.758 18.749 40.34 37.5" fill="none" stroke="#fff" stroke-linejoin="round" transform="translate(533.547 387.787)"/><path d="m594.414 379.867c10.4 7.186 20.73 14.925 28.67 27.087" fill="none" stroke="#fff" stroke-linejoin="round" transform="translate(550.101 387.322)"/><path d="m604.042 380.746c5.813 6.04 16.162 17.834 20 28.087" fill="none" stroke="#fff" stroke-linejoin="round" transform="translate(564.288 388.617)"/><path d="m610.141 382.079c11.754 11.754 22.237 26.117 27.382 38.8" fill="none" stroke="#fff" stroke-linejoin="round" transform="translate(573.275 390.581)"/><path d="m588.037 390.179c22.1-11.047 52.225-18.168 76.911-17.228" fill="none" stroke="#fff" stroke-linejoin="round" transform="translate(540.705 377.009)"/><path d="m602.795 386.243a113.523 113.523 0 0 1 49.475-9.674" fill="none" stroke="#fff" stroke-linejoin="round" transform="translate(562.451 382.38)"/><path d="m615.676 387.129c11.269-2.2 29.934-4.393 45.346-5.5" fill="none" stroke="#fff" stroke-linejoin="round" transform="translate(581.431 389.924)"/><path d="m577.991 399.2s6.936-19.486 40.622-30.983" fill="none" stroke="#fff" stroke-linejoin="round" transform="translate(525.902 370.16)"/><path d="m522.93 630.495-29.089-26.565c-5.87-5.36-12-11.138-14.131-18.8-1.281-4.608-.979-9.5-1.731-14.223-1.573-9.916-12.2-16.322-18.009-24.072a112.8 112.8 0 0 1 -15.823-29.224c-3.131-8.647-5.061-18.747-.413-26.682 2.431-4.153 6.448-7.262 8.548-11.591 3.426-7.064.853-15.813-4.032-21.96s-11.724-10.361-18.121-14.913c-14.791-10.525-28.336-24.23-33.531-41.624-2.568-8.593-2.431-19.172 4.336-25.059 4.643-4.039 11.249-4.855 16.562-7.962 8.588-5.024 12.687-15.484 13.144-25.423s-2.073-19.733-3.7-29.551a163.479 163.479 0 0 1 -1.412-42.47c.9-9.172 2.7-18.6 8-26.135s14.868-12.714 23.8-10.441c7.042 1.793 12.392 7.811 15.242 14.5s3.582 14.047 4.284 21.279l3.079 31.722c1.251 12.919 2.948 26.855 11.831 36.321 9.2 9.8 24.861 13.28 30.782 25.346 10.71 21.821-20.288 46.885-11.551 69.569 2.681 6.963 8.665 12 13.706 17.5 20.567 22.434 26.541 54.7 26.627 85.14.074 26.7-3.376 54.961 8.712 78.766" fill="#e6f0ff" transform="translate(256.353 171.305)"/><path d="m418.618 232.9c0 106.392 35.166 262.316 75.535 357.8" fill="none" stroke="#fff" stroke-linejoin="round" transform="translate(291.068 170.762)"/><path d="m405.462 247.917c7.663 19.345 29.338 50.608 41.193 68.753" fill="none" stroke="#fff" stroke-linejoin="round" transform="translate(271.683 192.895)"/><path d="m407.644 263.377c12.845 17.789 24.27 36.929 39.111 51.768" fill="none" stroke="#fff" stroke-linejoin="round" transform="translate(274.898 215.675)"/><path d="m401.026 288.85c16.473 23.3 49.349 60.249 74.43 80.448" fill="none" stroke="#fff" stroke-linejoin="round" transform="translate(265.147 253.21)"/><path d="m458.4 280.308c-14.67 32.917-21.843 51.508-29.229 81.378" fill="none" stroke="#fff" stroke-linejoin="round" transform="translate(306.624 240.623)"/><path d="m468.419 285.7c-13.881 36.954-27.621 62.376-36.62 94.992" fill="none" stroke="#fff" stroke-linejoin="round" transform="translate(310.49 248.572)"/><path d="m463.437 320.56c-13.844 22.744-21.176 46.883-24.235 73.334" fill="none" stroke="#fff" stroke-linejoin="round" transform="translate(321.398 299.934)"/><path d="m458.727 338.429c-7.673 27.5-15.328 43.491-15.14 61.3" fill="none" stroke="#fff" stroke-linejoin="round" transform="translate(327.855 326.264)"/><path d="m548.224 541.485c21.156-.077 40.484-14.843 44.122-33.711 1.42-7.371.782-15.425 4.855-21.826 6.161-9.684 19.169-12.338 24-22.862 4.655-10.139.91-22.689 1.722-33.35.811-10.688 8.148-19.667 15.264-27.963 3.893-4.536 7.853-9.14 10.2-14.524 4.5-10.314 2.56-22.353-1.843-33.048-2.36-5.729-5.5-11.467-6.206-17.572-.655-5.682 1.543-11.432 2.117-17.065a52.837 52.837 0 0 0 -7.18-31.883c-4.029-6.876-9.795-13.174-17.327-16.864s-16.971-4.435-24.171-.764c-12.6 6.424-13.782 22.442-12.318 35.833s3.557 28.581-5.986 38.406c-6.406 6.594-16.563 8.959-24.445 14.067-7.992 5.179-13.666 14.937-9.506 23.392 2.956 6.011 10.431 10.77 9.78 17.2-.646 6.4-8.749 9.177-13.51 13.77-7.566 7.3-6.248 19.459-1.356 28.883s12.7 17.478 17.619 26.894c7.6 14.551 7.517 32-.208 45.9" fill="#bbcff2" transform="translate(458.793 221.964)"/><path d="m595.407 267.765c6.092 45.285 2.7 73.68-2.647 104.915-7.888 46.071-26.308 113.11-51.394 163.206" fill="none" stroke="#fff" stroke-linejoin="round" transform="translate(471.936 222.141)"/><path d="m593.741 279.95c-8.494 16.795-18.747 32.46-29.843 44.993" fill="none" stroke="#fff" stroke-linejoin="round" transform="translate(505.137 240.095)"/><path d="m600.122 286.849c-9.807 20.441-23.948 36.177-37.426 49.368" fill="none" stroke="#fff" stroke-linejoin="round" transform="translate(503.366 250.261)"/><path d="m604.7 301.027a154.116 154.116 0 0 1 -43.511 35.71" fill="none" stroke="#fff" stroke-linejoin="round" transform="translate(501.144 271.152)"/><path d="m612.663 314.722c-17.275 18.264-43.709 33.748-55.191 41.8" fill="none" stroke="#fff" stroke-linejoin="round" transform="translate(495.668 291.332)"/><path d="m592.457 333.729c-16.036 15.069-27.223 20.978-38.888 27.458" fill="none" stroke="#fff" stroke-linejoin="round" transform="translate(489.917 319.338)"/><path d="m540.071 320.729c9.634 17.332 24.96 40.79 33.387 59.613" fill="none" stroke="#fff" stroke-linejoin="round" transform="translate(470.028 300.183)"/><path d="m545.543 301.495c7.962 16.815 24.646 55.327 29.506 74.521" fill="none" stroke="#fff" stroke-linejoin="round" transform="translate(478.091 271.842)"/><path d="m550.919 290.162c8.35 15.749 19.593 39.445 25.4 62.584" fill="none" stroke="#fff" stroke-linejoin="round" transform="translate(486.012 255.143)"/><path d="m535.122 507.779c-33.585-58.463-100.688-87.71-154.086-129.23-8.234-6.4-16.33-13.3-21.836-22.125s-8.148-19.926-4.764-29.763c4.786-13.926 20.275-21.764 35.049-23.12 22.143-2.031 43.825 7.213 62.5 19.123 59.515 37.969 111.053 109.245 131.215 191.217" fill="#fff" stroke="#bbd5f9" stroke-linejoin="round" transform="translate(194.28 274.442)"/><path d="m355.223 309.273c94.21 33.427 160.908 104.035 204.332 193.357" fill="none" stroke="#bbd5f9" stroke-linejoin="round" transform="translate(197.657 283.303)"/><path d="m567.359 454.686c-5.516-14.7-11.15-29.62-20.283-42.084s-22.4-22.36-37.174-23.248c-4.922-.3-9.916.4-14.767-.556-12.138-2.4-20.29-14.141-29.249-23.231a85.312 85.312 0 0 0 -54.538-25.4c-4.2-.282-8.882-.049-11.927 3.067-7.052 7.22.952 21.828-5.353 29.8-3.762 4.757-10.547 4.484-16.347 4-20.362-1.687-41.77-.71-59.727 9.708-3.139 1.821-6.241 4.024-8.111 7.28-3.794 6.607-1.177 15.721 4.106 21.025 6.006 6.033 16.2 8.608 24.245 10.765 10.2 2.736 20.906 3.176 31.406 2.6 3.945-.215 7.754.312 11.591.27 5.046-.054 9.6-1.445 14.69-.225 5.35 1.284 10.428 5.358 11.113 10.817.344 2.741-.428 5.556.094 8.269.769 3.995 4.267 7.017 8.1 8.383s7.989 1.363 12.063 1.346c9.335-.037 44.59-11.729 48.938 2.728.952 3.166-.6 6.51-.648 9.815-.272 19.024 40.112 12.461 50.845 13.53a62.791 62.791 0 0 1 27.134 9.32" fill="#bbcff2" transform="translate(128.203 328.689)"/><path d="m308.814 361.974c115.918-2.934 199.65 37.595 264.272 99.733" fill="none" stroke="#fff" stroke-linejoin="round" transform="translate(129.274 360.737)"/><path d="m353.295 339.1c17.98 20.107 44.661 72.194 51.157 86.067" fill="none" stroke="#fff" stroke-linejoin="round" transform="translate(194.816 327.254)"/><path d="m327.7 387.26c22.944-10.512 55.233-17.532 80.171-18.628" fill="none" stroke="#fff" stroke-linejoin="round" transform="translate(157.097 370.768)"/><path d="m316.1 386.029c16.253-7.02 57.536-19.157 74.981-20.958" fill="none" stroke="#fff" stroke-linejoin="round" transform="translate(140.006 365.52)"/><path d="m342.644 353.484c15.242 10.5 23.6 20.4 30.481 33.728" fill="none" stroke="#fff" stroke-linejoin="round" transform="translate(179.122 348.447)"/><path d="m361.056 405.573c15.944-13.622 47.085-22.172 67.38-24.31" fill="none" stroke="#fff" stroke-linejoin="round" transform="translate(206.251 389.381)"/><path d="m383.709 358c11.348 20.537 22.751 46.635 25.6 66.374" fill="none" stroke="#fff" stroke-linejoin="round" transform="translate(239.63 355.097)"/><path d="m546.006 492.9c14.594-63.975 48.794-127.717 109.794-163.644 28.225-16.622 63.012-26.7 96.073-20.411 12.724 2.419 25.563 7.73 32.509 17.559 8.435 11.942 6.075 28.109-2.155 40.167s-21.361 20.73-34.7 28.3c-24.643 13.975-51.112 25.247-75.679 39.326s-63.618 39.393-84.16 74.722" fill="#fff" stroke="#bbd5f9" stroke-linejoin="round" transform="translate(478.773 279.887)"/><path d="m552.976 499.615c10.945-47.805 48.527-87.952 88.212-119.68 38.592-30.852 80.435-58.261 132.92-65.117" fill="none" stroke="#bbd5f9" stroke-linejoin="round" transform="translate(489.043 291.473)"/><path d="m631.458 229.88a51.92 51.92 0 0 0 0-24.243l-10.98 1.608a40.8 40.8 0 0 0 -4.2-10.109l8.912-6.636a52.384 52.384 0 0 0 -17.144-17.144l-6.636 8.912a40.9 40.9 0 0 0 -10.109-4.2l1.605-10.98a51.917 51.917 0 0 0 -24.24 0l1.605 10.98a40.9 40.9 0 0 0 -10.109 4.2l-6.636-8.912a52.385 52.385 0 0 0 -17.141 17.144l8.912 6.636a40.906 40.906 0 0 0 -4.2 10.109l-10.98-1.608a51.924 51.924 0 0 0 0 24.243l10.98-1.605a40.906 40.906 0 0 0 4.2 10.109l-8.912 6.636a52.385 52.385 0 0 0 17.144 17.144l6.636-8.912a40.9 40.9 0 0 0 10.109 4.2l-1.605 10.98a52 52 0 0 0 24.24 0l-1.609-10.982a40.9 40.9 0 0 0 10.109-4.2l6.636 8.912a52.384 52.384 0 0 0 17.144-17.144l-8.912-6.636a40.8 40.8 0 0 0 4.2-10.109zm-50.669 12.986a25.107 25.107 0 1 1 25.106-25.106 25.1 25.1 0 0 1 -25.106 25.106z" fill="#ebf3ff" transform="translate(453.25 71.685)"/><path d="m525.524 248.057a77.889 77.889 0 0 0 0-36.323l-16.454 2.406a61.051 61.051 0 0 0 -6.288-15.145l13.352-9.946a78.461 78.461 0 0 0 -25.685-25.685l-9.949 13.352a61.107 61.107 0 0 0 -15.145-6.288l2.407-16.454a77.889 77.889 0 0 0 -36.323 0l2.407 16.454a61.147 61.147 0 0 0 -15.145 6.288l-9.946-13.352a78.484 78.484 0 0 0 -25.685 25.685l13.352 9.946a61.143 61.143 0 0 0 -6.288 15.145l-16.454-2.407a77.888 77.888 0 0 0 0 36.323l16.454-2.4a61.125 61.125 0 0 0 6.288 15.143l-13.352 9.946a78.461 78.461 0 0 0 25.685 25.685l9.946-13.352a61.057 61.057 0 0 0 15.145 6.288l-2.407 16.454a77.887 77.887 0 0 0 36.323 0l-2.407-16.454a61.017 61.017 0 0 0 15.145-6.288l9.946 13.352a78.438 78.438 0 0 0 25.685-25.685l-13.352-9.946a61.033 61.033 0 0 0 6.288-15.143zm-75.919 19.456a37.618 37.618 0 1 1 37.617-37.613 37.618 37.618 0 0 1 -37.617 37.613z" fill="#ebf3ff" transform="translate(221.695 51.31)"/><path d="m520.954 177.421a48.9 48.9 0 0 0 0-22.806l-10.329 1.511a38.434 38.434 0 0 0 -3.948-9.508l8.383-6.246a49.258 49.258 0 0 0 -16.127-16.125l-6.243 8.383a38.28 38.28 0 0 0 -9.508-3.948l1.511-10.329a48.9 48.9 0 0 0 -22.806 0l1.511 10.329a38.241 38.241 0 0 0 -9.508 3.948l-6.246-8.383a49.25 49.25 0 0 0 -16.125 16.125l8.383 6.246a38.242 38.242 0 0 0 -3.948 9.508l-10.332-1.511a48.991 48.991 0 0 0 0 22.806l10.332-1.511a38.28 38.28 0 0 0 3.948 9.508l-8.383 6.243a49.234 49.234 0 0 0 16.125 16.127l6.246-8.383a38.428 38.428 0 0 0 9.508 3.948l-1.511 10.329a48.9 48.9 0 0 0 22.806 0l-1.511-10.329a38.468 38.468 0 0 0 9.508-3.948l6.243 8.383a49.241 49.241 0 0 0 16.127-16.127l-8.383-6.243a38.472 38.472 0 0 0 3.948-9.508zm-47.664 12.214a23.618 23.618 0 1 1 23.617-23.617 23.618 23.618 0 0 1 -23.617 23.617z" fill="#ebf3ff" transform="translate(299.408)"/><g stroke-linejoin="round"><path d="m598.245 210.869a5.177 5.177 0 1 1 -5.177-5.177 5.179 5.179 0 0 1 5.177 5.177z" fill="none" stroke="#bbd5f9" transform="translate(540.489 130.677)"/><path d="m652.515 308.346a5.177 5.177 0 1 1 -5.177-5.177 5.177 5.177 0 0 1 5.177 5.177z" fill="none" stroke="#bbd5f9" transform="translate(620.456 274.308)"/><path d="m406.28 189.8a5.178 5.178 0 1 1 -5.177-5.177 5.177 5.177 0 0 1 5.177 5.177z" fill="none" stroke="#bbd5f9" transform="translate(257.629 99.64)"/><path d="m331.8 251a5.177 5.177 0 1 1 -5.177-5.177 5.177 5.177 0 0 1 5.177 5.177z" fill="none" stroke="#bbd5f9" transform="translate(147.891 189.811)"/><path d="m1277.687 720.063v11.862" fill="none" stroke="#bbd5f9"/><path d="m1283.618 725.994h-11.862" fill="none" stroke="#bbd5f9"/><path d="m1005.611 177.773v11.862" fill="none" stroke="#bbd5f9"/><path d="m1011.542 183.704h-11.862" fill="none" stroke="#bbd5f9"/><path d="m614.91 429.704v11.862" fill="none" stroke="#bbd5f9"/><path d="m620.841 435.635h-11.862" fill="none" stroke="#bbd5f9"/><path d="m692.854 160.086v11.862" fill="none" stroke="#bbd5f9"/><path d="m698.785 166.017h-11.862" fill="none" stroke="#bbd5f9"/><path d="m648.146 241.062a28.221 28.221 0 1 1 -37.092-14.735 28.223 28.223 0 0 1 37.092 14.735z" fill="none" stroke="#3e7eff" transform="translate(549.497 157.671)"/><path d="m639.266 264.056c-22.4 9.664-48.334 15.014-52.267 5.9-3.084-7.153 10.6-17.76 18.133-22.719l-.132 4.083c-12.35 8.13-12.2 12.766-10.977 15.6 2.251 5.217 18.484 5.1 43.944-5.877s36.682-22.714 34.431-27.931c-1.247-2.894-4.559-6.181-18.9-2.76l-2.973-2.585c14.9-3.552 26.615-2.988 28.9 2.315 3.93 9.118-17.757 24.31-40.159 33.974z" fill="#fff" stroke="#3e7eff" transform="translate(538.518 159.892)"/><path d="m371.006 225.553a23.386 23.386 0 1 1 -12.016-30.815 23.387 23.387 0 0 1 12.016 30.815z" fill="none" stroke="#3e7eff" transform="translate(154.89 111.623)"/><path d="m353.551 226.066c-18.514-8.125-36.4-20.827-33.1-28.361 2.595-5.912 16.755-3.6 24.018-1.838l-2.553 2.229c-11.9-2.9-14.631-.186-15.66 2.157-1.892 4.311 7.346 14.091 28.383 23.325s34.493 9.414 36.385 5.1c1.049-2.392 1.172-6.258-9-13.023l-.114-3.26c10.572 7.027 16.844 14.448 14.92 18.831-3.305 7.536-24.765 2.965-43.279-5.16z" fill="#fff" stroke="#3e7eff" transform="translate(145.839 113.309)"/><path d="m552.845 190.793.953-9.722 7.137 6.67 9.54-2.1-4.138 8.848 4.943 8.425-9.694-1.2-6.486 7.3-1.853-9.591-8.951-3.911z" fill="none" stroke="#3e7eff" transform="translate(476.252 94.399)"/><path d="m1040.11 439.09h20.764" fill="none" stroke="#bbd5f9"/><path d="m1069.09 439.09h14.946" fill="none" stroke="#bbd5f9"/><path d="m577.652 403.657h24.901" fill="none" stroke="#bbd5f9"/><path d="m555.633 403.657h15.751" fill="none" stroke="#bbd5f9"/><g fill="#bbcff2" stroke="#7898f4"><rect height="464.012" rx="5.962" stroke="none" width="258.644" x="760.349" y="376.844"/><rect fill="none" height="465.012" rx="6.462" width="259.644" x="759.849" y="376.344"/></g><path d="m767.266 409.923h244.809v381.951h-244.809z" fill="#fff" stroke="#7898f4"/><path d="m513.147 408.091a13.639 13.639 0 1 1 -13.639-13.639 13.637 13.637 0 0 1 13.639 13.639z" fill="none" stroke="#fff" stroke-linecap="round" transform="translate(390.162 408.813)"/><path d="m867.443 392.373h44.455" fill="none" stroke="#6ca0ff" stroke-linecap="round"/><path d="m850.976 392.373h8.198" fill="none" stroke="#6ca0ff" stroke-linecap="round"/></g><g clip-path="url(#a)" transform="translate(760.349 376.844)"><path d="m631.453 201.73-193.553 525.986h56.259l193.553-525.986z" fill="url(#b)" transform="translate(-440.867 -252.003)"/><path d="m661.231 201.73-193.552 525.986h23.852l193.552-525.986z" fill="url(#c)" transform="translate(-396.989 -252.003)"/></g><rect fill="#f5f6ff" height="46.462" rx="3.292" width="46.462" x="784.816" y="449.083"/><path d="m794.277 504.939h27.54" fill="none" stroke="#f5f6ff" stroke-linejoin="round"/><rect fill="#f5f6ff" height="46.462" rx="3.292" width="46.462" x="866.44" y="449.083"/><path d="m875.901 504.939h27.54" fill="none" stroke="#f5f6ff" stroke-linejoin="round"/><rect fill="#f5f6ff" height="46.462" rx="3.292" width="46.462" x="948.065" y="449.083"/><path d="m957.526 504.939h27.54" fill="none" stroke="#f5f6ff" stroke-linejoin="round"/><rect fill="#f5f6ff" height="46.462" rx="3.292" width="46.462" x="784.816" y="529.138"/><path d="m794.277 584.994h27.54" fill="none" stroke="#f5f6ff" stroke-linejoin="round"/><rect fill="#f5f6ff" height="46.462" rx="3.292" width="46.462" x="866.44" y="529.138"/><path d="m875.901 584.994h27.54" fill="none" stroke="#f5f6ff" stroke-linejoin="round"/><g transform="translate(948.065 529.138)"><path d="m3.292 0h39.878a3.291 3.291 0 0 1 3.291 3.291v39.88a3.292 3.292 0 0 1 -3.292 3.292h-39.877a3.292 3.292 0 0 1 -3.292-3.292v-39.879a3.292 3.292 0 0 1 3.292-3.292z" fill="#f5f6ff"/><path d="m9.461 55.856h27.54" fill="none" stroke="#f5f6ff" stroke-linejoin="round"/></g><rect fill="#f5f6ff" height="46.462" rx="3.292" width="46.462" x="784.816" y="609.192"/><path d="m794.277 665.048h27.54" fill="none" stroke="#f5f6ff" stroke-linejoin="round"/><rect fill="#f5f6ff" height="46.462" rx="3.292" width="46.462" x="866.44" y="609.192"/><path d="m875.901 665.048h27.54" fill="none" stroke="#f5f6ff" stroke-linejoin="round"/><g transform="translate(948.065 609.192)"><path d="m3.292 0h39.878a3.291 3.291 0 0 1 3.291 3.291v39.88a3.292 3.292 0 0 1 -3.292 3.292h-39.877a3.292 3.292 0 0 1 -3.292-3.292v-39.879a3.292 3.292 0 0 1 3.292-3.292z" fill="#f5f6ff"/><path d="m9.461 55.856h27.54" fill="none" stroke="#f5f6ff" stroke-linejoin="round"/></g><rect fill="#f5f6ff" height="46.462" rx="3.292" width="46.462" x="784.816" y="689.246"/><path d="m794.277 745.102h27.54" fill="none" stroke="#f5f6ff" stroke-linejoin="round"/><rect fill="#f5f6ff" height="46.462" rx="3.292" width="46.462" x="866.44" y="689.246"/><path d="m875.901 745.102h27.54" fill="none" stroke="#f5f6ff" stroke-linejoin="round"/><g fill="#fff" stroke-linejoin="round" transform="translate(202.291 209.551)"><path d="m1025.05493164 637.14221191h-674.34387207c2.86373901-4.86132812 6.91064453-8.9510498 11.74832153-11.86303711 5.2331543-3.14996337 11.24499512-4.81500244 17.38555909-4.81500244 2.78408813 0 5.55541992.34301758 8.23709106 1.01934815 2.59393311.65423584 5.11758423 1.62341308 7.50091553 2.88049316l.69992065.36920166.03292847-.79058838c.284729-6.83660888 3.15682983-13.21820068 8.0871582-17.96923828 4.94665528-4.7668457 11.45632935-7.39208984 18.32983399-7.39208984 6.77273559 0 13.2284851 2.57800293 18.17782592 7.25897217l.72109986.68200683.11889648-.98535156c2.06176758-17.08947754 10.29949951-32.8447876 23.19558716-44.36383057 6.362854-5.68322754 13.60101318-10.12634277 21.51358032-13.20574951 8.19177246-3.18804931 16.84326172-4.80456543 25.71417237-4.80456543 14.01159668 0 27.57025146 4.08776856 39.210083 11.82141113l.61114502.4060669.15435791-.71746826c.95513916-4.44195557 2.65191651-8.65917969 5.04302979-12.53460694 2.34613037-3.80273437 5.29156494-7.16723632 8.75439453-10.0001831 3.49249268-2.8571167 7.40332031-5.08416748 11.62365723-6.61895752 4.36785888-1.58850098 8.96160888-2.3939209 13.65350341-2.3939209 3.41693116 0 6.80975342.43206787 10.08441162 1.28417969 3.17700196.82672119 6.24969483 2.04998779 9.13269043 3.63580322 5.66674805 3.1170044 10.55426026 7.62225342 14.13415528 13.02868652l.54858398.82843018.33837891-.9342041c11.83843994-32.67697144 40.44781494-171.55853272 39.94702148-281.24697876h65.67523194c-.28338623 61.70944214 8.42504882 127.46057129 15.79193115 171.80822754 8.67150879 52.20050049 18.9296875 95.15542602 24.58111572 110.6078186l.34082031.93188477.54614258-.82836914c5.24511719-7.95501709 14.04718018-12.70422364 23.5456543-12.70422364 5.46179199 0 10.75744629 1.56750489 15.31469726 4.53295899 4.43518067 2.8861084 7.96539307 6.94451904 10.20910645 11.73645019l.29205322.62384033.50256348-.4710083c11.83184814-11.0861206 27.26843262-17.19152832 43.46612549-17.19152832 8.3404541 0 16.44848633 1.58959961 24.09875488 4.72460938 7.38903809 3.02807617 14.07434082 7.37640381 19.86987305 12.92431641 2.85357666 2.73168945 5.46575927 5.74328613 7.76391601 8.95117187 2.31646729 3.23352051 4.33636475 6.69799805 6.00366211 10.29736328 3.45770264 7.46447754 5.40594483 15.43695068 5.79052735 23.69616699l.03839111.82427979.71295166-.41564942c2.11657715-1.23406982 4.37414551-2.18756103 6.7098999-2.83404541 2.42364502-.67077636 4.93389893-1.01086425 7.46105957-1.01086425 7.14880371 0 13.96362305 2.68206787 19.18920899 7.55206298 5.19659423 4.84307862 8.35675048 11.40161133 8.89831543 18.4673462l.053833.70294189.64556885-.28332519c4.86895752-2.1369629 10.02758789-3.22045899 15.33270264-3.22045899 4.35223389 0 8.61956787.72601318 12.68341064 2.15795899 3.92681885 1.38366699 7.5857544 3.39624023 10.87518311 5.98205566 3.25579834 2.55932617 6.06231689 5.6105957 8.34155273 9.06890869 2.19604492 3.33203125 3.84674073 6.95941162 4.91131592 10.7902832z"/><path d="m1024.39099121 636.64221191c-1.05273437-3.54730224-2.61895752-6.9109497-4.66479492-10.01507568-2.24963379-3.41333008-5.01965332-6.42492676-8.2331543-8.9510498-3.24633789-2.55187989-6.85717773-4.53814698-10.73223877-5.90356446-4.01043701-1.4130249-8.22186279-2.1295166-12.51733398-2.1295166-5.23553467 0-10.32659912 1.06933594-15.13165283 3.17828369-.12854004.05639649-.26538086.08435059-.40185547.08435059-.17877198 0-.35687256-.04797363-.51452637-.14251709-.2779541-.16674805-.45788574-.45794678-.48266602-.7810669-.53192138-6.94030761-3.63604736-13.38244628-8.74066162-18.13970947-5.13262939-4.7835083-11.82647705-7.41790771-18.8482666-7.41790771-2.4821167 0-4.94744873.33398437-7.32763672.99273681-2.29431152.63500977-4.51208496 1.57165528-6.5914917 2.78417969-.15545654.09063721-.32946777.1361084-.50366211.1361084-.16430664 0-.32873535-.04046631-.47784423-.12158203-.30725098-.16711426-.50482178-.48260498-.52105713-.83190918-.3815918-8.19421387-2.31445313-16.10388184-5.74487305-23.50927735-1.6541748-3.57098388-3.65814209-7.00823974-5.9564209-10.21624755-2.28015136-3.18286133-4.87182617-6.17089844-7.703125-8.88116456-5.7501831-5.5045166-12.38287353-9.81866455-19.71374511-12.82293701-7.58984375-3.11022949-15.63403321-4.68725586-23.90917969-4.68725586-16.07025147 0-31.38537598 6.05743409-43.12420655 17.05645752-.18695068.1751709-.4321289.27026368-.68371582.27026368-.06280517 0-.12603759-.00592041-.18884277-.01800538-.31451416-.06054687-.58099365-.26794433-.71685791-.55792236-2.20404053-4.7074585-5.6720581-8.6942749-10.02886963-11.52941894-4.47595215-2.91259766-9.67736816-4.45208741-15.04205322-4.45208741-9.32989502 0-17.97589111 4.66522217-23.12823486 12.47949219-.18634034.28265381-.50109864.44952393-.83465577.44952393-.03845214 0-.0772705-.0022583-.11608886-.00677491-.37506104-.0437622-.69348145-.29510498-.82324219-.64978027-5.65942383-15.47412109-15.92822266-58.46688843-24.60467529-110.6975708-7.34985352-44.24465942-16.03430176-109.79360962-15.80084229-171.39022827h-64.67108154c.41149902 109.66763306-28.14984131 248.26593017-39.97900391 280.91726684-.12866211.35522461-.4465332.60766602-.82183838.65240479-.03961181.00469971-.07916259.00701904-.11846924.00701904-.33270263 0-.64703369-.16613769-.83361816-.44793701-3.53540039-5.33917236-8.36212158-9.78845215-13.95831299-12.86657715-2.84674072-1.56585693-5.88067627-2.77368164-9.01757812-3.59002685-3.23352051-.84143067-6.58410645-1.26806641-9.9584961-1.26806641-4.63348388 0-9.16967773.79534912-13.48260498 2.36383057-4.16729736 1.51550293-8.02905273 3.71459961-11.47796631 6.53607177-3.41973876 2.79766846-6.32849121 6.12036133-8.64550781 9.87567139-2.36108398 3.82684326-4.03649902 7.9911499-4.97967529 12.3772583-.06958008.32342529-.29449463.59143067-.60089111.71606445-.12139893.04937745-.24932862.07366944-.37670899.07366944-.19421387 0-.38708496-.05651856-.5534668-.16705322-11.55749511-7.67895508-25.02050781-11.73785401-38.9333496-11.73785401-8.80859375 0-17.39907837 1.60498047-25.53274537 4.77050781-7.85675048 3.05767823-15.04391479 7.46948243-21.36190795 13.11273194-12.80541993 11.43792724-20.98510743 27.08209228-23.03225709 44.05078125-.04525756.375-.29791259.69250488-.65316772.82073974-.11077881.04003907-.22561645.05950928-.33959961.05950928-.25140381 0-.49841308-.09490967-.68722534-.27349853-4.8560791-4.59283448-11.1897583-7.12225342-17.83425903-7.12225342-6.74340821 0-13.12982178 2.57550049-17.98291016 7.25207519-4.83724976 4.66137696-7.65518189 10.92254639-7.93450928 17.63000489-.01434326.3427124-.20324707.65423584-.50067138.82525634-.15411377.08862305-.3262024.13311768-.49847413.13311768-.16009521 0-.32037353-.03839111-.46652221-.11547852-2.34817505-1.23858642-4.83450318-2.19335937-7.3899231-2.83789062-2.64175415-.66638184-5.37197876-1.00421143-8.11483764-1.00421143-6.0496521 0-11.97232056 1.64025879-17.12774659 4.74340821-4.51428222 2.71728515-8.32968139 6.47546386-11.11776733 10.93463134zm1.31604004 1h-675.85806274c5.85473632-10.53961181 17.08673095-17.67803955 29.99597168-17.67803955 5.77059936 0 11.19741821 1.4395752 15.97125244 3.95758057.59851074-14.36853027 12.40209961-25.8404541 26.91659546-25.8404541 7.18041992 0 13.68576049 2.82220459 18.52142334 7.39575195 4.26916503-35.38580322 34.38140869-62.81427002 70.91973877-62.81427002 14.60101318 0 28.1730957 4.38800049 39.48675537 11.90490723 3.92547607-18.2543335 20.13916015-31.94256592 39.56341552-31.94256592 14.11132813 0 26.52075196 7.22747803 33.76818848 18.17254639 11.34820557-31.3241272 40.51312256-170.36129761 39.91455078-281.57662964h66.68023682c-.60595703 112.61032104 29.24652099 252.41183472 40.34008789 282.74429321 5.13250732-7.78424072 13.94311523-12.92895508 23.96307373-12.92895508 11.5067749 0 21.40075684 6.78472901 25.97662353 16.55737305 11.46221924-10.73980713 26.86199952-17.32666016 43.80792237-17.32666016 34.38653564 0 62.44317627 27.07727051 64.02624511 61.07037354 4.24206543-2.47344971 9.15942383-3.9130249 14.42279053-3.9130249 15.10070801 0 27.45080567 11.66986084 28.58605957 26.48120117 4.75665283-2.08770752 10.00531006-3.26263428 15.53356934-3.26263428 18.02667236 0 33.13238525 12.32537842 37.46356201 28.99920654z" fill="#bbd5f9"/></g><path d="m562.544 548.136a31.434 31.434 0 0 0 -30.266 23.006 56.94 56.94 0 0 0 -94.435 35.274 34.274 34.274 0 0 0 -50.4 25.571h509.982a29.893 29.893 0 0 0 -45.425-15.729 23.743 23.743 0 0 0 -37.466-16.417 48.458 48.458 0 0 0 -83.891-25.967 25.432 25.432 0 0 0 -33.3-16.894c-9.511-39.192-29.887-180.2-29.457-293.558h-49.886c.445 117.082-21.143 260.2-30.365 297.266a31.362 31.362 0 0 0 -25.091-12.552z" fill="#e6f0ff" transform="translate(257.69 215.743)"/><path d="m538.363 397.719a39.049 39.049 0 0 0 -33.55 13.241 37.2 37.2 0 0 1 68.441 29.125 39.1 39.1 0 0 0 -34.891-42.366z" fill="#fff" transform="translate(430.628 401.081)"/><path d="m462.286 403.433a33.892 33.892 0 0 0 -14.326 27.837 32.292 32.292 0 0 1 61.34-20.147 33.936 33.936 0 0 0 -47.014-7.69z" fill="#fff" transform="translate(344.858 401.811)"/><path d="m512.54 394.42a20.635 20.635 0 0 0 -21.962 14.826 20.946 20.946 0 0 1 .054-3.626 20.632 20.632 0 0 1 41.119.965l-1.7 2.058a20.623 20.623 0 0 0 -17.511-14.223z" fill="#fff" transform="translate(409.574 398.016)"/><path d="m447.253 271.055c-5.3 26.481 19.021 137.165 19.021 137.165s15.626-117.325 35.813-124.575c6.738-31.821-2.731-55.839-2.335-67.509 0 0-40.952-2.805-52.499 54.919z" fill="#f2311d" transform="translate(344.702 146.034)"/><path d="m570.074 271.055c5.3 26.481-19.019 137.165-19.019 137.165s-15.622-117.325-35.814-124.575c-6.74-31.821 2.728-55.839 2.335-67.509.001 0 40.952-2.805 52.498 54.919z" fill="#f2311d" transform="translate(442.416 146.034)"/><path d="m549.272 118.006s-97.172 50.706-97.172 149.05c0 84.108 36.063 217.815 36.063 217.815h122.224s36.063-133.707 36.063-217.815c0-98.344-97.178-149.05-97.178-149.05z" fill="#3e7eff" transform="translate(352.951 1.473)"/><g transform="translate(843.684 207.822)"><circle cx="58.539" cy="58.539" fill="#fff" r="54.002"/><circle cx="49.285" cy="49.285" r="49.285" style="fill:none;stroke:#4a63fe;stroke-linecap:round;stroke-linejoin:round;stroke-width:2;stroke-dasharray:.03 15" transform="matrix(.14730881 -.98909055 .98909055 .14730881 2.532 100.027)"/><circle cx="58.54" cy="58.54" fill="#202263" r="44.621"/><g clip-path="url(#d)"><g fill="#fff" opacity=".65" transform="translate(7.146 5.637)"><path d="m0 0h21.159v111.255h-21.159z" opacity=".25" transform="matrix(.741 .672 -.672 .741 84.843 8.139)"/><path d="m0 0h4.008v111.254h-4.008z" opacity=".25" transform="matrix(.74079287 .67173352 -.67173352 .74079287 104.309 25.775)"/><path d="m0 0h6.859v111.254h-6.859z" opacity=".25" transform="matrix(.741 .672 -.672 .741 74.733 0)"/></g></g></g><g clip-path="url(#e)" transform="translate(805.047 119.479)"><path d="m468.278 161.714h114.3c-27.881-30.063-57.152-45.346-57.152-45.346s-29.267 15.284-57.148 45.346z" fill="#f2311d" transform="translate(-428.252 -120.42)"/><path d="m0 0h144.792v9.855h-144.792z" fill="#202263" transform="translate(25.497 348.475)"/><path d="m0 0h123.87" fill="none" stroke="#fff" stroke-linejoin="round" stroke-width="1.5" transform="translate(37 32.935)"/></g><path d="m500.378 218.723c-33.976 5.316 0 196.922 0 196.922s33.976-191.607 0-196.922z" fill="#f2311d" transform="translate(401.844 149.878)"/><path d="m608.825 356.937s10.035 35.222 26.434 58.636c23.941 34.187 65.419 56.027 65.419 56.027l15.568-16.286s-39.311-33.84-55.07-60.959c-9.182-15.8-16.241-51.023-16.241-51.023" fill="#f2b18f" transform="translate(571.335 333.49)"/><path d="m649.152 397.929-4.509 23.251s26.8-25.44 26.746-27.142-7.92-5.432-7.92-5.432" fill="#f2b18f" transform="translate(624.112 400.199)"/><path d="m668.1 397.914-.136-7.7-2.592-1.39.173 11.809-2.788 2.958-14.988 5.509-3.646 17.977a2.106 2.106 0 0 0 3.6 1.862l14.334-15.207 1.227-8.031 1.3-1.38 3.359 3.166 9.332-9.9-4.692-4.425z" fill="#f94c43" transform="translate(623.279 400.513)"/><path d="m632.534 313.914-37.184 8.573c-5.375 67.41-5.786 67.467-1.722 113.778 5.039 57.4 14.685 105.455 14.685 105.455l-13.364 8.647s36.914 1.647 38.1.43-1.586-9.476-1.586-9.476-3.789-86.379-4.43-108.742 5.501-118.665 5.501-118.665z" fill="#f2b18f" transform="translate(544.93 290.141)"/><path d="m628.573 414.588 5.456-5.444-.8-2.832-8.382 8.318-4.064.045-14.376-6.963-15.474 9.847a2.106 2.106 0 0 0 1.155 3.883l20.9-.23 6.634-4.69 1.895-.022.049 4.615 13.609-.151-.069-6.448z" fill="#f94c43" transform="translate(543.531 426.288)"/><path d="m617.07 322.837s12.877-9.016 17.816-14.873c11.108-13.176 21.5-48.6 21.5-48.6l18.113 4.774s-6.327 40.625-18.338 58.7c-7.814 11.761-25.6 28.542-25.6 28.542" fill="#f2b18f" transform="translate(583.484 209.757)"/><path d="m632 285.086s5.793-27.532 7.176-27.839.151 4.969 1.239 4.5 3.6-12.7 5.061-12.637c1.984.082-.571 11.089-.571 11.089s3.4-11.915 5.1-11.346c1.2.4-.972 9.614-1.361 13.241.923-3.876 3.161-9.978 4.4-9.533s-.119 6.743-.893 11.628c.769-3 2.461-8.393 3.629-8.036s-2.877 22.608-6.312 38.008" fill="#f2b18f" transform="translate(605.491 194.251)"/><path d="m644 255.78c-1.509 1.952-3 2.523-4.227 4.039a10.318 10.318 0 0 0 -2.4 5.254" fill="none" stroke="#e2845a" stroke-linejoin="round" stroke-width=".5" transform="translate(613.397 204.481)"/><path d="m635.692 255.014c.087 1.311 1.224 3.846-.2 7.695" fill="none" stroke="#e2845a" stroke-linejoin="round" stroke-width=".5" transform="translate(610.636 203.353)"/><path d="m584.057 338.4a77.025 77.025 0 0 0 -8.684.71.92.92 0 0 0 -.643.289c-.285.4.178.9.6 1.14 1.066.6 2.434.6 3.433 1.279.3.2-.928.658-.97.67a6.182 6.182 0 0 1 -2.246-.049c-.757-.1-4.66-1.6-3.876.148a.553.553 0 0 1 .077.257c-.04.49-.391.772-.28 1.281.1.47.715 1.022 1.017 1.365a13.274 13.274 0 0 0 3.042 2.555 18.941 18.941 0 0 0 7.413 2.384c8.081 1.076 16.389.9 24.525.792 4.957-.062 9.99-.074 14.824-1.326a5.351 5.351 0 0 0 1.964-.762c4.9-3.718 5.1-11.86 6.124-17.381 1.914-10.292 1.259-20.7 2.436-31.1 0 0-18.907.7-19.066.71-.339.012-2.592 13.814-2.8 14.779-.831 3.814-1.732 7.628-2.906 11.356-.688 2.187-1.479 5.82-3.334 7.391-2.417 2.043-6.965 2.362-9.978 2.788-3.543.494-7.108.578-10.672.724z" fill="#f2b18f" transform="translate(516.264 270.597)"/><path d="m572.16 318.139a16.5 16.5 0 0 0 6.624 2.157c2.491-.48 6.179-.5 8.113 1.2" fill="none" stroke="#e2845a" stroke-linejoin="round" stroke-width=".5" transform="translate(517.31 296.367)"/><path d="m572.16 317.47c2.09 1.5 4.858 1.5 7.43 1.5" fill="none" stroke="#e2845a" stroke-linejoin="round" stroke-width=".25" transform="translate(517.31 295.381)"/><path d="m597.867 315.638s-9.6 29.5-6.557 99.278c39.294 4.475 89.983-2.313 89.983-2.313s-5.9-45.651-10.819-59.792c-8.449-24.309-16.149-32.643-16.149-32.643z" fill="#212237" transform="translate(544.649 292.681)"/><path d="m660.123 326.053c-3.98 27.33-5.56 43.761-5.56 43.761s-19.138 1.123-35.445 1.123a94.6 94.6 0 0 1 -21.668-2.286s1.457-3.369-3.866-29.892c-6.122-11.707-2.419-21.856 6.157-28.072 8.464-6.132 20.77-19.464 20.77-19.464s.651 2.743 5.573 3.1a15.228 15.228 0 0 0 10.5-3.223c10.221-2.825 18.541-3.1 29.093-9.157 13.038 7.245 19.392 23.721 19.392 23.721z" fill="#ff958a" transform="translate(544.411 243.037)"/><path d="m1170.493 537.361-2.102 24.611" fill="none" stroke="#2941b7" stroke-linejoin="round" stroke-width=".5"/><path d="m624.439 285.706s-13.834-.8-24.04 9.4c-8.066 8.066-12.513 33.55-12.513 33.55l23.8 8.5 5.823-24.24" fill="#ff958a" transform="translate(540.482 248.555)"/><path d="m601.681 293.566s-14.472 11.069-7.537 26.387" fill="none" stroke="#f2311d" stroke-linejoin="round" stroke-width=".5" transform="translate(546.932 260.159)"/><path d="m639 342.971h-59.52l-9.2-36.247a4.045 4.045 0 0 1 3.92-5.038h51.2a4.011 4.011 0 0 1 3.886 3.023z" fill="#3e7eff" transform="translate(514.347 272.123)"/><ellipse cx="1118.921" cy="594.452" fill="#66a1ff" rx="4.847" ry="3.72"/><path d="m632.273 319.713h-40.543v-2.243h36.761c3.097 0 3.782 2.243 3.782 2.243z" fill="#3e7eff" transform="translate(546.146 295.381)"/><path d="m622.892 299.778s-6.3 5.343-7.072 8.125" fill="none" stroke="#f2311d" stroke-linejoin="round" stroke-width=".5" transform="translate(581.643 269.312)"/><path d="m627.9 271.989a18.252 18.252 0 0 1 6.34 6.461 24.253 24.253 0 0 1 1.645 5.538c.584 2.2 1.8 3.223 2.817 5.125.908 1.694.237 3.5-.626 5.061s-1.9 3.225-1.615 4.986c.158.967.641 2.164-.124 2.778a1.984 1.984 0 0 1 -.91.331 95.792 95.792 0 0 1 -22.67 1.427c-3.243-.183-6.557-.366-9.753-.574-1.825-.119-1.59-1.2-1.158-2.54.8-2.464-1.4-3.841-2.545-5.659-1.625-2.575.062-5.254 2.367-6.827 1.118-.764 2.409-1.232 3.559-1.949 1.924-1.2 2.261-2.864 2.99-4.848a13.018 13.018 0 0 1 9.755-8.155" fill="#212237" transform="translate(556.353 228.365)"/><path d="m603.444 286.872-.722 10.458s-.712 3.151 5.466 2.525a28.609 28.609 0 0 0 10.564-3.01l-2.765-18.653" fill="#f2b18f" transform="translate(562.305 237.506)"/><path d="m605.409 275.259c-3.906 4.311-9.12 20.179-2.06 23.879 7.443 3.9 16.436.933 18.974-9.281 2.668-10.729-6.644-25.927-16.914-14.598z" fill="#f2b18f" transform="translate(558.129 227.279)"/><path d="m602.9 285.033a11.194 11.194 0 0 0 10.5-3.087" fill="none" stroke="#e2845a" stroke-linejoin="round" stroke-width=".5" transform="translate(562.599 243.036)"/><path d="m608.655 278.307-.067.094" fill="none" stroke="#ff855a" stroke-linejoin="round" transform="translate(570.986 237.674)"/><path d="m618.92 292.488c-1.551-4.784-3.27-10.656-3.488-11.556a53.259 53.259 0 0 1 -9.654-.824 20.439 20.439 0 0 1 -4.648-1.5c-1.494-.712-1.383-1.207-.688-2.622a9.614 9.614 0 0 1 13.142-4.435c2.073-1.17 5.575-.814 7.23-.482a13.082 13.082 0 0 1 10.586 11.577c.319 3.379.01 13.112-9.985 16.224-.296.091-1.35-2.85-2.495-6.382z" fill="#212237" transform="translate(558.26 226.112)"/><path d="m611.915 277.848c-1.165-.131-1.737-3.606-1.539-4.484.584-2.6 2.659-4.566 5.437-4.049a5.727 5.727 0 0 1 4.438 5.617c.119 2.642-1.6 4.017-4.1 4.388a5.678 5.678 0 0 1 -4.237-1.472" fill="#212237" transform="translate(573.565 224.302)"/><path d="m608.51 279.415a2.209 2.209 0 0 1 1.942-1.165c1.969-.025 2.244 2.652 1.405 4.405a5.5 5.5 0 0 1 -2.263 2.491c-1.383.829-2.753.638-2.951-1.051" fill="#f2b18f" transform="translate(568.12 237.59)"/><path d="m614.87 284.069c-2.308 4.012-9.953 7.129-9.953 7.129l3.775 7s6.79-5.87 8.019-10.564z" fill="#fff" transform="translate(565.577 246.164)"/><path d="m609.066 290.424s-4.749-3.74-5.239-5.83l-1.727 2.723s0 5.934 3.483 10.1z" fill="#fff" transform="translate(561.428 246.938)"/><path d="m0 0h42.25v1.892h-42.25z" fill="#103bb2" transform="matrix(.96385865 .26641417 -.26641417 .96385865 619.069 834.651)"/><path d="m391.921 401.792-3.752-.141s-2.617 4.232-4.019 7.294a38.867 38.867 0 0 0 -2.167 6.285l40.724 11.257s-.094-3.824-8.242-12.194a22 22 0 0 1 -4.455-6.4z" fill="#f94c43" transform="translate(237.087 419.421)"/><path d="m649.496 831.315-2.619 2.005" fill="none" stroke="#103bb2" stroke-linejoin="round" stroke-width=".5"/><path d="m651.421 833.555-2.313 2.089" fill="none" stroke="#103bb2" stroke-linejoin="round" stroke-width=".5"/><path d="m653.261 835.53-2.199 2.234" fill="none" stroke="#103bb2" stroke-linejoin="round" stroke-width=".5"/><path d="m389.928 396.084-5.444 13.77s1.313 2.612 8.229 4.524a51.849 51.849 0 0 0 13.612 1.714l8.969-18.615" fill="#f2b18f" transform="translate(240.772 411.218)"/><path d="m419.772 332.093s-1.65 13.191 0 20.2c-1.687 27.312-20.085 103.035-35.866 146.346l34.938 9.417s42.1-91.2 42.1-175.964" fill="#202263" transform="translate(239.92 316.928)"/><path d="m395.667 507.955c7.616-19.761 40.2-93.686 43-176.862" fill="none" stroke="#3655ad" stroke-linejoin="round" stroke-width=".5" transform="translate(257.25 315.454)"/><path d="m713.371 845.827h42.25v1.892h-42.25z" fill="#103bb2"/><path d="m426.122 405.348-3.656.863s-1.4 4.776-1.932 8.1a38.9 38.9 0 0 0 -.421 6.636l42.25.022s-1.106-3.661-11.188-9.565a22.008 22.008 0 0 1 -6-4.987z" fill="#f94c43" transform="translate(293.257 424.868)"/><path d="m741.817 834.509-1.992 2.629" fill="none" stroke="#103bb2" stroke-linejoin="round" stroke-width=".5"/><path d="m744.268 836.157-1.675 2.629" fill="none" stroke="#103bb2" stroke-linejoin="round" stroke-width=".5"/><path d="m746.567 837.572-1.526 2.738" fill="none" stroke="#103bb2" stroke-linejoin="round" stroke-width=".5"/><path d="m420.853 402.431.51 16.038s1.962 2.172 9.137 2.174a51.819 51.819 0 0 0 13.577-1.966l1.6-21.648" fill="#f2b18f" transform="translate(294.361 412.61)"/><path d="m402.791 333.165s-1.751 19.231 8.4 31.5 19.437 59.453 22.739 80.393c3.708 23.523 8.341 75.619 8.341 75.619h38.616s-4.2-52.7-10.446-97.735c-4.46-32.133-11.855-71.207-14.072-78.832s-5.363-18.9-5.363-18.9" fill="#202263" transform="translate(267.577 306.783)"/><path d="m447.77 510.53s-6.517-61.063-11.509-99.53c-5.209-40.152-12.192-71.279-14.408-78.9" fill="none" stroke="#3655ad" stroke-linejoin="round" stroke-width=".5" transform="translate(295.834 316.928)"/><path d="m693.636 661.329h14.451" fill="none" stroke="#3655ad" stroke-linejoin="round" stroke-width=".5"/><path d="m658.731 661.329h7.226" fill="none" stroke="#3655ad" stroke-linejoin="round" stroke-width=".5"/><path d="m425.5 391.083-10.819-34.349s-7.863-9.676-11.007-20.213" fill="none" stroke="#3655ad" stroke-linejoin="round" stroke-width=".5" transform="translate(269.051 323.451)"/><path d="m423.441 348.594c-17.532-14.341-32.6-39-39.269-78.479l17.418-8.9c7.945 31.856 18.014 50.041 35.546 64.38" fill="#f2b18f" transform="translate(240.312 212.484)"/><path d="m405.8 282.957s-6.008-23.473-7.314-23.736-.039 4.672-1.071 4.257-3.641-11.851-5.014-11.764c-1.86.116.764 10.4.764 10.4s-3.436-11.121-5.021-10.552c-1.121.4 1.11 9.011 1.551 12.407-.945-3.619-3.174-9.305-4.329-8.863s.247 6.332 1.074 10.9c-.784-2.8-2.483-7.831-3.572-7.472s2.231 20.139 5.021 33.763" fill="#f2b18f" transform="translate(238.085 198.238)"/><path d="m443.819 346.918c18.957-12.4 36.558-35.319 47.38-73.866l-16.374-10.7c-11.284 30.832-23.224 47.845-42.18 60.242" fill="#f2b18f" transform="translate(311.735 214.161)"/><path d="m429.316 290.255 1.348 15.5a65.934 65.934 0 0 1 -10.9.351c-6.72-.255-9.582-4.356-9.582-4.356l4.244-18.373" fill="#f2b18f" transform="translate(278.643 245.141)"/><path d="m432.081 275.213c2.125 1.808 4.267 3.433 5.039 5.563 3.426 9.446 3.1 18.215-.084 21.618-3.851 4.113-16.038 2.177-24.208-3.817s-2.164-15.719 2-20.527 17.253-2.837 17.253-2.837z" fill="#f2b18f" transform="translate(276.553 232.527)"/><path d="m440.742 284.613c-2.132-.487-5.711-1.027-7.542-.584a6.871 6.871 0 0 0 -.178 6.471c-.19.529-.952.524-1.467.3s-1.059-.571-1.593-.4c-.594.2-.8.928-.838 1.551a7.167 7.167 0 0 0 1.773 5.108 10.041 10.041 0 0 1 1.133 1.321c.846 1.375.055 3.728-.581 5.036a8.887 8.887 0 0 1 -1.15 1.969 4.472 4.472 0 0 1 -2.523.91 28.224 28.224 0 0 1 -10.191-.151c-3.433-.7-3.856-2.382-5.125-5.479a16.857 16.857 0 0 0 -1.722-2.81 16.7 16.7 0 0 1 -2.192-13.535 15.52 15.52 0 0 1 5.635-8.259c3.324-2.441 9.807-3.661 13.5-2.464 10.736-1.603 14.194 8.234 13.061 11.016z" fill="#212237" transform="translate(275.369 230.06)"/><path d="m403.1 321.837c1.907-3.2 5.241-21.534 19.59-26.085 24.154 4.494 45.379-3.681 59.923-11.39 11.937 8.954 14.932 26.4 14.932 26.4s-23.2 19.867-51.75 20.945" fill="#3e7eff" transform="translate(268.2 246.595)"/><path d="m473.837 303.383.267 84.19h-78.073s4.915-48.3 9.778-89.817" fill="#3e7eff" transform="translate(257.786 266.332)"/><path d="m448.571 299.891c-17.633 0-34.344-17.205-34.344-17.205l-21.927 17.784s11.685 20.245 21.364 29.924c6.973 3.609 28.6-2.152 28.6-2.152z" fill="#3e7eff" transform="translate(252.291 244.127)"/><path d="m448.577 282.938s8.467-22.7 9.793-22.823-.458 4.65.613 4.346 4.878-11.4 6.233-11.165c1.838.314-1.865 10.262-1.865 10.262s4.6-10.7 6.115-9.961c1.073.519-2.06 8.843-2.859 12.172 1.326-3.5 4.143-8.914 5.246-8.353s-.918 6.27-2.226 10.73c1.076-2.706 3.3-7.527 4.343-7.054s-4.353 19.79-8.576 33.041" fill="#f2b18f" transform="translate(335.212 200.816)"/><path d="m730.646 575.616-12.124 2.354" fill="none" stroke="#2941b7" stroke-linejoin="round" stroke-width=".5"/><path d="m522.952 845.827h42.25v1.892h-42.25z" fill="#103bb2"/><path d="m337.429 405.348-3.656.863s-1.4 4.776-1.934 8.1a38.894 38.894 0 0 0 -.421 6.636l42.252.022s-1.106-3.661-11.188-9.565a22 22 0 0 1 -6-4.987z" fill="#f2311d" transform="translate(191.533 424.868)"/><path d="m551.398 834.509-1.992 2.629" fill="none" stroke="#103bb2" stroke-linejoin="round" stroke-width=".5"/><path d="m553.849 836.157-1.675 2.629" fill="none" stroke="#103bb2" stroke-linejoin="round" stroke-width=".5"/><path d="m556.148 837.572-1.526 2.738" fill="none" stroke="#103bb2" stroke-linejoin="round" stroke-width=".5"/><path d="m332.157 402.431.512 16.038s1.959 2.172 9.135 2.174a51.817 51.817 0 0 0 13.577-1.966l1.6-21.648" fill="#f2b18f" transform="translate(192.637 412.61)"/><path d="m0 0h42.25v1.892h-42.25z" fill="#103bb2" transform="matrix(.634 .773 -.773 .634 374.5 778.325)"/><path d="m287.265 383.6-2.985-2.278s-4.579 1.947-7.49 3.641a38.907 38.907 0 0 0 -5.395 3.886l26.78 32.68s2.13-3.178.3-14.717a22.04 22.04 0 0 1 .054-7.8z" fill="#f2311d" transform="translate(103.106 389.472)"/><path d="m401.283 793.144-3.296.128" fill="none" stroke="#103bb2" stroke-linejoin="round" stroke-width=".5"/><path d="m401.564 796.085-3.095.373" fill="none" stroke="#103bb2" stroke-linejoin="round" stroke-width=".5"/><path d="m401.928 798.759-3.085.557" fill="none" stroke="#103bb2" stroke-linejoin="round" stroke-width=".5"/><path d="m288.686 377.054-12.076 10.567s-.433 2.891 4.113 8.442a51.915 51.915 0 0 0 10.134 9.248l17.75-12.493" fill="#f2b18f" transform="translate(110.775 383.177)"/><path d="m366.487 326.593c1.813 1.813 12.068 95.642 12.852 189.568h-39.5c-.784-93.926-17.626-187.755-19.437-189.568" fill="#103bb2" transform="translate(175.315 308.823)"/><path d="m341.838 516.161c-.784-93.926-17.626-187.755-19.437-189.568" fill="none" stroke="#0c1a72" stroke-linejoin="round" stroke-width=".5" transform="translate(178.262 308.823)"/><path d="m357.931 330.346s-2.473 42.875-25.972 72.557c-14.23 17.972-53.593 55.24-53.593 55.24l25.148 29.682s41.07-29.185 62.661-56.717c28.908-36.862 36.689-76.438 40.4-108.183" fill="#103bb2" transform="translate(113.378 303.42)"/><path d="m360.218 327.926s-2.36 42.964-25.972 72.557c-14.695 18.413-54.075 55.564-54.075 55.564" fill="none" stroke="#0c1a72" stroke-linejoin="round" stroke-width=".5" transform="translate(116.037 310.787)"/><path d="m328.051 327.926s-2.043 10.688-15.927 9.149" fill="none" stroke="#0c1a72" stroke-linejoin="round" stroke-width=".5" transform="translate(163.119 310.787)"/><path d="m335.646 327.926s2.051 9.3 10.488 9.3" fill="none" stroke="#0c1a72" stroke-linejoin="round" stroke-width=".5" transform="translate(197.779 310.787)"/><path d="m324.185 370.117s8.279-21.5 10.574-36.049" fill="none" stroke="#0c1a72" stroke-linejoin="round" stroke-width=".5" transform="translate(180.891 319.838)"/><path d="m345.048 340.084c-20.631-9.352-41.53-29.313-58.12-65.75l14.547-13.082c15.865 28.744 30.268 43.731 50.9 53.084" fill="#f2b18f" transform="translate(125.995 212.545)"/><path d="m311.351 279.917s-11.841-21.138-13.169-21.057 1.163 4.526.059 4.39-6.562-10.517-7.868-10.082c-1.769.591 3.411 9.857 3.411 9.857s-6.179-9.867-7.564-8.909c-.982.678 3.389 8.425 4.687 11.593-1.845-3.255-5.459-8.177-6.461-7.453s1.865 6.055 3.841 10.263c-1.479-2.511-4.415-6.931-5.375-6.3s7.331 18.888 13.53 31.339" fill="#f2b18f" transform="translate(119.967 200.614)"/><path d="m285.511 259.782a13.957 13.957 0 0 1 6.622 3.535" fill="none" stroke="#e2845a" stroke-linejoin="round" stroke-width=".5" transform="translate(123.906 210.378)"/><path d="m289.7 258.372s-1.464 3.789 0 5.254" fill="none" stroke="#e2845a" stroke-linejoin="round" stroke-width=".5" transform="translate(129.122 208.301)"/><path d="m346.879 340.084c20.629-9.352 41.53-29.313 58.12-65.75l-14.547-13.082c-15.865 28.744-30.268 43.731-50.9 53.084" fill="#f2b18f" transform="translate(203.539 212.545)"/><path d="m358.577 279.917s11.838-21.138 13.166-21.057-1.163 4.526-.059 4.39 6.565-10.517 7.871-10.082c1.766.591-3.413 9.857-3.413 9.857s6.179-9.867 7.564-8.909c.982.678-3.386 8.425-4.685 11.593 1.843-3.255 5.456-8.177 6.461-7.453s-1.865 6.055-3.841 10.263c1.479-2.511 4.415-6.931 5.372-6.3s-7.329 18.888-13.53 31.339" fill="#f2b18f" transform="translate(231.568 200.614)"/><path d="m371.373 259.782a13.953 13.953 0 0 0 -6.619 3.535" fill="none" stroke="#e2845a" stroke-linejoin="round" stroke-width=".5" transform="translate(240.669 210.378)"/><path d="m363.627 258.372s1.467 3.789 0 5.254" fill="none" stroke="#e2845a" stroke-linejoin="round" stroke-width=".5" transform="translate(239.009 208.301)"/><path d="m385.605 297.529-23.115-11.771-17.552-1.551-29.038 26.513s-6.367 77.915-6.367 80.388c16.1 3.045 58.127 5.773 79.265 0-1.929-26.795-3.193-93.579-3.193-93.579z" fill="#ff958a" transform="translate(159.302 246.368)"/><path d="m359.753 292.064s-23.011-4.806-40.033-13.189c-10.591 8.979-20.24 23.315-20.24 23.315s17.356 17.911 36.348 23.315" fill="#ff958a" transform="translate(144.488 238.512)"/><path d="m330.943 292.776s18.682-3.611 32.017-13.332c13.493 9.721 12.531 27.285 12.531 27.285s-14.7 16.79-31.53 21.158" fill="#ff958a" transform="translate(190.85 239.35)"/><path d="m474.104 562.868 8.529 4.369" fill="none" stroke="#f2311d" stroke-linejoin="round" stroke-width=".5"/><path d="m545.415 562.868v-11.606" fill="none" stroke="#f2311d" stroke-linejoin="round" stroke-width=".5"/><path d="m340.708 270.946s9.206 16 5.13 22.793c-2.12 3.532-9.963 5.835-13.911 3.7-2.931-1.585-9.251-14.057-8.286-16.711 3.69-10.138 17.067-9.782 17.067-9.782z" fill="#f2b18f" transform="translate(179.944 226.826)"/><path d="m325.282 279.53-1.435 11.57s8.232 8.128 17.552 1.551l.542-11.9z" fill="#f2b18f" transform="translate(180.394 239.477)"/><path d="m323.412 293.6c-1.318-3.559-2.434-5.417-2.953-9.746-.542-4.524 2.9-5.8 2.9-5.8s-.591.5 1.3-3.394c1.786-3.678 7.643-3.438 11.173-4 4.635-.737 8.858-3.995 11.571-2 1.185.868 3.772 7.47-.022 9.676-2.169 1.261-5.7.49-8.192.883-4.65.73-8.022 2.226-8.625 5.4a8.977 8.977 0 0 0 .584 4.586 13.251 13.251 0 0 1 .406 1.491l-1.86 1.393c-2.367 1.682 2.7 6.157 2.3 8.269-.213 1.108-2.3 1.561-4.121.628s-3.027-3.519-4.461-7.386z" fill="#212237" transform="translate(175.315 222.52)"/><path d="m327.274 278.781c-2.065-2.333-3.527-1.786-4.225-.322-.933 1.949 1.581 5.565 2.654 6.119 2.177 1.121 3.834.816 3.839-1" fill="#f2b18f" transform="translate(178.918 236.036)"/><path d="m337.3 281.429c-4.311 1.383-10.666 0-10.666 0" fill="none" stroke="#e2845a" stroke-linejoin="round" stroke-width=".5" transform="translate(184.502 242.275)"/></g></svg>