<svg height="337.001" viewBox="0 0 1953 337.001" width="1953" xmlns="http://www.w3.org/2000/svg" xmlns:xlink="http://www.w3.org/1999/xlink"><linearGradient id="a" gradientUnits="objectBoundingBox" x1=".5" x2=".5" y1=".415" y2="1"><stop offset="0" stop-color="#e6f0ff"/><stop offset="1" stop-color="#fff"/></linearGradient><path d="m-3733.914-10027v-59.974q-.085-1.5-.086-3.028t.086-3.028v-24s2.852-.531 8.317-1.524a53.431 53.431 0 0 1 44.98-24.444 53.425 53.425 0 0 1 27.4 7.5 62.878 62.878 0 0 1 59.6-42.507 62.877 62.877 0 0 1 44.859 18.7 78.572 78.572 0 0 1 70.439-43.7 78.457 78.457 0 0 1 62.532 30.971 62.9 62.9 0 0 1 58.675-39.97 62.861 62.861 0 0 1 40.435 14.633c7.018-29.041 33.485-50.634 65.063-50.634a67.056 67.056 0 0 1 55.733 29.5 76.631 76.631 0 0 1 60.564-29.5 76.609 76.609 0 0 1 53.09 21.24 70.423 70.423 0 0 1 62.739-38.24 70.322 70.322 0 0 1 37.733 10.9 62.933 62.933 0 0 1 54.266-30.9 62.852 62.852 0 0 1 35.254 10.738c4.9-45.943 44.016-81.739 91.543-81.739a92.058 92.058 0 0 1 87.073 61.713 92.117 92.117 0 0 1 82.919-51.707c50.845 0 92.061 40.966 92.061 91.5q0 3.044-.2 6.041c114.86.171 217 5.454 305.883 13.392a90.91 90.91 0 0 1 -4.866-29.434c0-50.532 41.216-91.5 92.061-91.5a92.034 92.034 0 0 1 62.572 24.383 92.089 92.089 0 0 1 70.27-32.383 92.027 92.027 0 0 1 88.087 64.825 92.037 92.037 0 0 1 51.772-15.824c50.842 0 92.061 40.967 92.061 91.5a90.921 90.921 0 0 1 -26.118 63.849c3.319 1.07 4.99 1.653 4.99 1.653v131z" fill="url(#a)" transform="translate(3734 10364)"/></svg>