<svg height="685.141" viewBox="0 0 652.457 685.141" width="652.457" xmlns="http://www.w3.org/2000/svg" xmlns:xlink="http://www.w3.org/1999/xlink"><clipPath id="a"><circle cx="165.146" cy="165.146" r="165.146" transform="matrix(.163 -.987 .987 .163 0 325.872)"/></clipPath><ellipse cx="31.819" cy="55.115" fill="#3e7eff" opacity=".13" rx="31.819" ry="55.115" transform="matrix(.00542795 -.99998527 .99998527 .00542795 450.417 422.983)"/><ellipse cx="31.819" cy="55.115" fill="#3e7eff" opacity=".15" rx="31.819" ry="55.115" transform="matrix(.005 -1 1 .005 135.833 657.152)"/><path d="m40.72 0c22.489 0 40.72 31.578 40.72 70.531s-18.231 70.531-40.72 70.531-40.72-31.577-40.72-70.531 18.231-70.531 40.72-70.531z" fill="#3e7eff" opacity=".15" transform="matrix(.00542795 -.99998527 .99998527 .00542795 362.553 671.71)"/><ellipse cx="35.187" cy="60.949" fill="#3e7eff" opacity=".18" rx="35.187" ry="60.949" transform="matrix(.00542795 -.99998527 .99998527 .00542795 77.501 479.123)"/><path d="m376.609 279.4-80.409-46.414a12.606 12.606 0 0 1 -6.3-10.916v-79.17a6.34 6.34 0 0 1 9.51-5.491l80.406 46.422a12.6 12.6 0 0 1 6.3 10.913v79.165a6.339 6.339 0 0 1 -9.507 5.491z" fill="#e6f0ff" fill-rule="evenodd" transform="translate(-82.158 -136.554)"/><path d="m308.235 223.794-37.257-21.511a5.842 5.842 0 0 1 -2.92-5.057v-36.683a2.937 2.937 0 0 1 4.407-2.543l37.26 21.511a5.842 5.842 0 0 1 2.92 5.056v36.686a2.939 2.939 0 0 1 -4.41 2.541z" fill="#3e7eff" fill-rule="evenodd" opacity=".5" transform="translate(-86.538 -115.136)"/><path d="m456.37 327.937-58.182-33.592a9.12 9.12 0 0 1 -4.561-7.9v-57.288a4.588 4.588 0 0 1 6.883-3.972l58.19 33.592a9.119 9.119 0 0 1 4.558 7.9v57.286a4.59 4.59 0 0 1 -6.888 3.974z" fill="#19b5fe" fill-rule="evenodd" transform="translate(114.855 30.609)"/><path d="m397.229 290.68 78.5-45.318a12.308 12.308 0 0 0 6.152-10.655v-77.286a6.191 6.191 0 0 0 -9.287-5.361l-78.5 45.32a12.3 12.3 0 0 0 -6.153 10.652v77.286a6.191 6.191 0 0 0 9.288 5.362z" fill="#bee1f4" fill-rule="evenodd" transform="translate(104.057 -108.693)"/><path d="m231.557 413.236 112.468-64.936a17.632 17.632 0 0 0 8.814-15.268v-110.732a8.87 8.87 0 0 0 -13.305-7.681l-112.468 64.935a17.632 17.632 0 0 0 -8.814 15.268v110.734a8.869 8.869 0 0 0 13.305 7.68z" fill="#3e7eff" fill-rule="evenodd" transform="translate(-218.252 9.447)"/><path d="m257.579 282.214a45.189 45.189 0 0 1 -6.034 4.2c-10.31 5.95-19.382 5.149-24.671-.968l24.671-32.969z" fill="#ecb390" fill-rule="evenodd" transform="translate(-201.876 83.621)"/><path d="m264.957 260.3c0 16.361-10.1 35.854-23.54 46.814l-6.034-29.742v-33.949c16.329-9.429 29.574-1.879 29.574 16.877z" fill="#e74c3c" fill-rule="evenodd" transform="translate(-185.714 58.721)"/><path d="m254.766 240.763v33.949l-24.666 32.969c-3.114-3.578-4.917-8.974-4.917-15.886-.005-18.753 13.239-41.595 29.583-51.032z" fill="#fff" fill-rule="evenodd" transform="translate(-205.097 61.381)"/><path d="m287.938 235.985-39.7 22.226v-5.66l39.7-22.226z" fill="#e6f0ff" fill-rule="evenodd" transform="translate(-161.302 41.555)"/><path d="m287.938 243.608-39.7 22.226v-5.661l39.7-22.226z" fill="#e6f0ff" fill-rule="evenodd" transform="translate(-161.302 56.033)"/><path d="m287.938 251.23-39.7 22.226v-5.656l39.7-22.226z" fill="#e6f0ff" fill-rule="evenodd" transform="translate(-161.302 70.511)"/><ellipse cx="28.551" cy="49.454" fill="#3e7eff" rx="28.551" ry="49.454" transform="matrix(.00542795 -.99998527 .99998527 .00542795 280.004 544.995)"/><path d="m330.418 302.544-14.912 27.6 95.813 1.584-14.863-27.758z" fill="#3e7eff" transform="translate(-33.528 178.727)"/><path d="m378.8 331.723c-13.375 7.721-35.123 7.68-48.579-.087s-13.526-20.328-.151-28.049 35.12-7.68 48.577.09 13.529 20.323.153 28.046z" fill="#dfeaff" transform="translate(-24.826 169.76)"/><path d="m366.932 324.868c-9.986 5.764-26.225 5.735-36.274-.064s-10.1-15.178-.113-20.945 26.225-5.735 36.274.067 10.099 15.174.113 20.942z" fill="#bee1f4" transform="translate(-19.127 173.051)"/><path d="m390.078 392.962c.249-2.032-102.259-134.787-102.259-134.787h268.855l-115.349 135.532z" fill="#bee1f4" opacity=".5" transform="translate(-86.117 94.453)"/><g fill-rule="evenodd"><path d="m402.535 260.526s-19.681 23-24.929 24.538-.516 6.953 3.514 7.364 16.84-.133 20.574-3.8 14.288-7.6 14.288-7.6c0-11.925-2.853-19.417-2.853-19.417z" fill="#606bf1" transform="translate(80.014 98.919)"/><path d="m383.5 207.031s-2.549 50.89-1.618 67.576 5 99.525 5 99.525c10.774 2.314 17.622 0 17.622 0 3.543-63.52 3.442-81.786 4.456-91.259s2.273-36.854 2.273-36.854c7.6-15.718-.351-36.173-4.1-41.1s-23.633 2.112-23.633 2.112z" fill="#112b46" transform="translate(92.15 -10.022)"/><path d="m399.1 268.928c-.661 9.3-4.022 20.261-4.871 25.837a13.207 13.207 0 0 0 2.435 10.531c1.285 1.792 17.014-3.41 19.162-9.469s-2.256-11.366-2.6-22.728c-5.074-9.099-14.126-4.171-14.126-4.171z" fill="#606bf1" transform="translate(115.615 112.349)"/><path d="m387.942 208.454s2.708 46.318 6.979 61.746 8.1 60.676 9.922 68.568 4.036 56.637 4.036 56.637a34.726 34.726 0 0 0 17.478 0c-.206-45.651.9-82.755 0-95.277s.357-49.626.357-49.626c4.053-17.272 4.294-19.478 0-30.951s-22.747-20.569-38.772-11.097z" fill="#112b46" transform="translate(104.056 -7.493)"/><path d="m431.594 167.951c-15.987 4.5-24.57 44.677-29.049 53.7s-41.8 11.273-41.8 11.273c-2.241 7.828 4.106 16.039 4.106 16.039 35.947-1.493 48.629-4.48 55.291-18.661s30.051-57.518 11.452-62.351z" fill="#112b46" transform="translate(51.486 -76.918)"/><path d="m392.368 167.975c14.2-.626 47.115 6.756 57.953 20.58s-4.9 38.255-8.663 52.975 1.74 51.685 1.731 55.231c-16.822 11.157-57.341 12.569-61.891-4.068-1.879-18.107 2.27-39.6 2.493-50.194-.544-22.752-10.42-67.786 8.377-74.524z" fill="#fff" transform="translate(90.712 -76.942)"/><path d="m405.26 171.332c-9.145 32.1-11.293 68.113-10.406 81.737s1.261 57.663 1.261 57.663c-10.635-5.6-15.3-15.863-15.3-20.528s4-44.523 3.876-47.73-5.37-39.791-3.876-56.213 12.253-18.31 12.253-18.31h13.685z" fill="#112b46" transform="translate(90.012 -76.918)"/><path d="m387.852 155.752c-6.254 1.972 0 16.193 0 16.193z" fill="#56548c" transform="translate(98.606 -100.089)"/><path d="m387.011 164.77s-2.357 8.324-1.467 14.793 1.473 19.353 7.2 23.476 13.949-.664 19.391-5.283 11.209-13.143 11.337-23.45-3.9-22.937-18.765-22.293-17.696 12.757-17.696 12.757z" fill="#ffc8af" transform="translate(99.119 -107.236)"/><path d="m409.568 164.619s-1.16 13.271 2.32 18.168c.249 3.265-9.107 17.106-18.426 14.688-5.425-1.406-4.775-7.73-4.775-7.73.58-4.83 0-16.495 0-16.495z" fill="#ffc8af" transform="translate(105.425 -83.247)"/><path d="m385.15 159.131c-2.117 7.643.3 10.389 6.741 12.581s23.581-2.778 23.581-2.778c-1.16 8.188 1.418 12.427 1.418 12.427 2.833-8.04 5.41-3.946 5.668 2.485s-3.349 6.286-3.349 6.286c.258 5.407 2 7.248 2 7.248 6.892-4.764 16.274-36.616 3.853-37.353-.184-11.119-35.377-17.263-39.912-.896z" fill="#56548c" transform="translate(97.333 -112.711)"/><path d="m407.669 170.155c-11.05 23.3-16.837 44.575-16.463 63.8s4.343 75.2 4.343 75.2c19.171-4.665 32.233-10.075 35.967-16.608-8.211-21.647-11.2-36.2-9.519-42.363s16.161-53.108 8.64-67.049c-7.146-7.778-22.968-12.98-22.968-12.98z" fill="#112b46" transform="translate(110.224 -72.732)"/><path d="m409.885 173.6c13.215 6.579 22.76 38.179 32.839 47.95 5.712 5.538 33.92 12.766 41.757 12.963 3.036 6.915-2.424 14.6-2.424 14.6-48.147-4.52-50.276-7.17-65.086-26.066-18.387-23.452-24.778-53.971-7.086-49.447z" fill="#112b46" transform="translate(125.888 -67.045)"/><path d="m406.859 169.084a27.2 27.2 0 0 0 2.464 3.105s-4.793 10.476-6.521 15.1-6.271 8.484-6.271 8.484l-6.213-6.779c8.562-4.532 16.541-19.91 16.541-19.91z" fill="#fff" transform="translate(108.569 -74.766)"/><path d="m429.662 197.115s6.671-1.89 11.708-1.763 10.073-1.511 11.082-1.386.629 3.9-6.3 4.784c5.793 1.51 10.7 2.52 14.1 1.386s3.021 3.526 0 6.672-7.933 3.653-11.331 4.03-16.747-2.14-20.774-3.778c-1.382-7.805 1.515-9.945 1.515-9.945z" fill="#ffc8af" transform="translate(179.716 -27.517)"/><path d="m390.872 170.254c.568-.707 1.931 13.076 4 16.567-3.978 3.746-6.35 4.752-6.35 4.752s-2.376-15.427 2.35-21.319z" fill="#fff" transform="translate(104.02 -72.593)"/><path d="m393.98 175.854-5.306 3.253a31.849 31.849 0 0 1 1.3 7.048h4.961l3.691-5.268z" fill="#fbd15b" transform="translate(105.447 -61.907)"/><path d="m393.475 179.993c-7.379 38.278-6.625 61.949-6.625 61.949l3.746 10.531 8.089-11.792s-5.86-44.97-.249-60.687c-3.073-2.013-4.961-.001-4.961-.001z" fill="#fbd15b" transform="translate(101.942 -55.744)"/><path d="m275.71 187.663s24.729 17.489 35.086 23.291 50.815-16.97 50.815-16.97 5.5 2.824 3.079 11.6c-26.483 17.843-46.016 26.286-53.894 24.5s-31.638-15.715-39.687-20-6.417-23.439 4.601-22.421z" fill="#ec827d" transform="translate(-127.43 -39.552)"/><path d="m267.833 284.847c.5 7.156 1.163 14.306 1.163 14.306h1.589s0-10.818 1.693-8.542c-.235-5.891-4.445-5.764-4.445-5.764z" fill="#112b46" transform="translate(-124.079 145.114)"/><path d="m292.659 366.856c.765 0 1.8-.832 2.717-2.085-1.621-1.937-3.233-3.833-4.306-5.32-3.442-4.775-9-15.37-9.269-20.136s2.65-54.555 3.445-60.647 3.076-29.133 2.862-30.455-21.4 8.182-21.4 8.182c.267 1.882 3.131 13.8 1.963 21.479s-3.021 12.754-1.963 25.312 7.153 32.685 5.033 42.221c-.038.171-.067.322-.1.487 6.223 8.544 8.415 25.163 21.018 20.962z" fill="#ffc8af" transform="translate(-126.821 75.291)"/><path d="m292.684 300.7c-.916 1.253-1.951 2.085-2.717 2.085-12.6 4.2-14.8-12.418-21.026-20.963-1.975 9.064-1.1 10.13.551 11.429 1.673 1.325 7.5 8.475 8.559 13.508s16.95 4.5 19.864 3.442c2.003-.732-1.642-5.221-5.231-9.501z" fill="#112b46" transform="translate(-124.128 139.365)"/><path d="m272.287 293.875c-.615 5.573-3.876 48.475-3.346 55.637.316 4.364 2.392 11.229 3.685 16.735.826 3.5 1.313 6.463.826 7.883-1.27 3.665-1.334 14.575-7.246 12.117-5.932-2.456-9.852-10.061-8.643-18.472 1.186-8.411-.235-12.459.1-17.48s-3.024-36.295-3.552-47.395c-.531-11.145 3.178-16.443 3.453-23.856.252-7.417-1.972-22.882-1.972-22.882s25.529-13.389 23.433 2.754c-2.099 16.165-6.125 29.406-6.738 34.959z" fill="#ffc8af" transform="translate(-150.241 80.731)"/><path d="m251.8 227.39c-3.473 17.48 4.8 29.13 6.324 33.1s-3.326 53.494-3.326 53.494c13.421 20.658 60.3 7.947 67.982-5.03-1.05-30.519-3.688-80.51-3.436-85.808s-67.544 4.244-67.544 4.244z" fill="#56548c" transform="translate(-156.139 24.879)"/><path d="m272.35 299c-.4 7.457-2.383 14.178-8.3 11.719-5.932-2.456-9.852-10.061-8.643-18.472 3.178 9.278 15.317 8.875 15.062-1.528.831 3.494 1.959 6.781 1.881 8.281z" fill="#112b46" transform="translate(-148.088 156.262)"/><path d="m275.242 167.8c8.078 7.7 10.765 14.413 9.591 21.969s-2.52 17.124 1.342 19.977c-8.226 6.379-23.8-2.853-23.485-4.532s8.666-26.022 9.443-26.19z" fill="#56548c" transform="translate(-133.856 -77.204)"/><path d="m309.82 190.472c-17.289-8.663-47-3.647-58.606 9.09s12.789 36.3 16.825 49.867-23.789 51.611-14.612 63.271c18.017 10.278 69.942 3.268 74.813-12.061-.18-22.743-13.761-42.647-10.525-52.091.171-6.065 8.861-25.854 5.381-33.5-7.096-15.594-5.558-19.818-13.276-24.576z" fill="#d16565" transform="translate(-161.54 -42.361)"/><path d="m292.579 179.717s2.357 8.324 1.47 14.793-1.473 19.353-7.205 23.476-13.949-.664-19.391-5.283-11.209-13.143-11.34-23.45 3.9-22.937 18.768-22.291 17.698 12.755 17.698 12.755z" fill="#ffc8af" transform="translate(-146.345 -78.84)"/><path d="m261.223 181.5s.962 13.273-1.925 18.171c-.206 3.262 7.562 17.106 15.294 14.688 4.506-1.409 3.963-7.733 3.963-7.733-.481-4.827 0-16.492 0-16.492z" fill="#ffc8af" transform="translate(-140.298 -51.177)"/><path d="m284.585 179.273a19.105 19.105 0 0 1 -12.337 13.091c-1.511 14.1 1.821 24.106 6.382 26.309-12.311 4.471-19.458 1.047-22.818-5.57s-5.976-34.839 7.875-43.4 20.898 9.57 20.898 9.57z" fill="#56548c" transform="translate(-151.993 -77.955)"/><path d="m272.891 181.379c4.282 5.79 13.752 6.042 15.312 5.79-.2-22.412-21.859-24.677-28.91-16.619 5.793 11.078 13.598 10.829 13.598 10.829z" fill="#56548c" transform="translate(-140.299 -80.061)"/><path d="m260.943 238.327c.847-.377-4.2-40.281-4.2-40.281l35.158-6.956 1.508 61.618-31.888 7.46z" fill="#fff" transform="translate(-145.133 -32.968)"/><path d="m264.671 213.228s11.209-10.928 13.694-13.444 2.456.858-.765 6.724c5.051 1.186 8.286 7.956 8.646 10.325s-6.051 8.481-7.881 9.2-9.313 0-9.313 0z" fill="#ffc8af" transform="translate(-130.084 -18.057)"/><path d="m259.374 189.837c9.594.687 11.139 52.615 11.139 52.615s26.263-12.212 28.086-11.9c9.733 2.114 4.381 12.8 4.381 12.8-20.557 15.613-28.866 24.587-38.9 22.656s-17.62-37.82-17.26-54 6.48-22.603 12.554-22.171z" fill="#ec827d" transform="translate(-164.014 -35.385)"/></g><path d="m605.269 330.324a164.977 164.977 0 0 1 -161.754 165.121c-1.134.017-2.267.035-3.4.035s-2.267 0-3.4-.035a165.145 165.145 0 1 1 168.554-165.121z" fill="#85cded" transform="translate(-110.506 -82.164)"/><path d="m590.76 278.077a165.239 165.239 0 0 1 -152.987 111.879c-1.134.017-2.267.035-3.4.035s-2.267 0-3.4-.035a165.2 165.2 0 0 1 -152.973-111.879c22.157-33.369 83.793-57.35 156.37-57.35s134.23 23.981 156.39 57.35z" fill="#8fd7ef" transform="translate(-104.764 23.324)"/><g clip-path="url(#a)" transform="translate(139.745 58.299)"><g fill="#bee1f4"><path d="m273.314 286.655c-.29-26.527 17.321-51.4 49.591-70.026 65.964-38.084 173.633-37.892 240.015.432 32.175 18.576 50.049 43.282 50.336 69.565l-1.766.017c-.281-25.634-17.843-49.8-49.455-68.052-65.895-38.043-172.772-38.237-238.249-.432-31.69 18.3-48.988 42.615-48.707 68.478z" transform="translate(-253.419 -96.774)"/><path d="m333.635 472.595a62.188 62.188 0 0 1 -30.693-7.651l.861-1.543c22.125 12.352 51.516 9.214 82.757-8.82 65.315-37.712 118.455-129.365 118.455-204.312 0-37.73-13.842-65.967-37.973-77.478l.76-1.595c24.772 11.815 38.98 40.635 38.98 79.072 0 75.509-53.534 167.849-119.336 205.84-18.966 10.952-37.293 16.487-53.811 16.487z" transform="translate(-197.137 -129.052)"/><path d="m463.766 472.595c-16.515 0-34.842-5.535-53.807-16.486-65.8-37.991-119.336-130.331-119.336-205.84 0-38.437 14.207-67.257 38.979-79.072l.76 1.595c-24.132 11.511-37.973 39.748-37.973 77.478 0 74.946 53.137 166.6 118.455 204.312 31.244 18.037 60.638 21.171 82.757 8.82l.861 1.543a62.191 62.191 0 0 1 -30.696 7.65z" transform="translate(-220.536 -129.052)"/><path d="m442.951 359.467c-93.442 0-169.464-61.6-169.464-137.321h1.769c0 74.744 75.228 135.553 167.7 135.553s167.7-60.809 167.7-135.553h1.769c-.01 75.718-76.032 137.321-169.474 137.321z" transform="translate(-253.084 -32.28)"/><path d="m380.348 479.767c2.409-.484-.241-4.575 4.094-4.094s14.926 3.775 19.261.925-2.891-6.222 2.166-7.666 9.838-4.059 10.594-7.222.963-5.3-2.891-6.019-7.7-4.816-11.073-5.778-9.391-.481-13-2.647-12.279-9.391-15.651-9.632-10.592 0-6.982-1.2 6.26-.963 4.575-2.647-5.779-9.632-8.666-11.8-10.835-4.094-14.445-8.666-8.43-14.931-8.43-14.931-10.351-2.888-13.964-7.463-7.222-9.148-9.388-9.629-4.094-2.169-5.538-2.409-2.406 2.169-4.094 3.131-3.369-3.131-4.332-6.26-4.335-1.925-5.779-4.575-2.891-7.944-2.65-9.629 2.891-7.222 2.169-9.872-4.816-5.538-6.019-8.185 1.685-7.463 3.369-9.87 3.613-2.891 1.2-5.057-5.384-2.409-4.859 0-2.122 3.068-4.047-1.716-2.647-16.1 1.2-20.435 1.447-9.87 5.778-8.907 5.3 4.335 6.26 7.7 2.891 4.094 2.65-.722c4.572 5.538 4.332 8.666 5.054 9.391s1.687.722 1.687 2.166-1.206 7.7-.966 11.076 0 6.5 1.447 6.019 2.647-6.985 2.647-11.076.963-8.426 3.128-8.666 4.335-2.409 6.985-1.928 6.257-.963 6.982-3.61 9.148-10.574 11.554-10.464 4.575 3.482 6.741 3-.4-6.019 3.531-6.5 7.785-1.687 8.507 0-4.816 2.647-3.128 3.85 4.813-.963 6.982-.722 8.185 2.166 8.426-.241.722-5.346-1.2-3.758-1.685 3.758-3.131 1.832-3.129-2.241-2.647-5.094 4.094-5.741 3.128-6.463-6.26-.963-6.982-1.925 2.169-3.853 6.26-2.891 6.5 4.335 9.151 4.094 6.5-4.094 6.5-1.444-4.816 6.425-5.538 8.629.481 3.407 3.85 4.372 3.131 4.332 5.056 3.369 3.131-8.185.963-9.388-4.813 2.888-3.128-2.169 5.3-5.776 3.85-10.351-4.332-9.872-4.332-11.8 2.167-12.03 2.167-12.03-3.129 3.613-5.3 2.891-3.61-2.169-2.407-3.853 4.094-4.575 3.369-4.816a2.8 2.8 0 0 1 -1.685-2.647c0-1.444-1.444-3.131-2.166-4.094s-.722-2.406-1.925-2.166-3.131 3.372-3.853 5.3-4.816 2.406-4.816 4.091.481 6.5-3.61 7.225-6.26 0-6.982 1.2-3.775 8.426-5.378 7.944-.8-3.372 0-6.5 3.691-2.407 3.21-5.538-2.166-1.685-1.685-4.575-2.088-6.982-1.525-8.185 2.969-1.444 2.728-3.369.481-7.707 5.3-7.944 14.2-1.928 16.129-2.891a4.369 4.369 0 0 1 4.575 0c.963.722.963.655 3.131-.635s9.148-5.144 10.11-4.181 0 6.5-2.166 8.669-3.613 5.054-5.3 4.572-6.019-3.128-4.816-1.2 4.335 2.647 4.335 4.094-1.2 7.463.481 8.426 1.925-3.372 2.647-3.61.241 5.054 1.928 3.369 2.406-6.5 2.647-8.426-.963-2.409.241-1.928 0 5.3 2.169 5.3 6.982-.722 5.054-3.369-2.888-6.982-2.166-7.463 1.925-1.206 1.925-2.65 2.409-8.185-.963-9.148-5.3 1.2-3.369-.963a13.567 13.567 0 0 0 2.647-5.057s-5.056-.722-7.7 2.406-1.925 4.094-2.65 4.575-5.775 3.853-6.5 2.647 4.094-3.85 4.575-4.572 2.65-6.741 3.372-6.982-7.947 4.091-10.113 6.016-6.26 2.65-5.779 1.928 12.52-5.779 9.632-6.741-8.188 3.369-9.151 1.444 1.687-.742.722-2.659-4.332.974-3.61-2.4-.722-4.091 1.444-4.332 2.407-2.169 4.094-5.057 1.925-10.594 3.85-10.835 15.17-6.982 16.373-9.87 5.538-5.538.722-4.575-9.151 2.647-8.426 1.685.241-3.531-3.853-1.885-17.576 5.5-18.3 7.9 1.687 2.65-6.741 8.185-15.648 13.242-19.5 15.651-3.369 5.054-6.741 6.5-4.091.481-6.982 4.091-14.2 11.557-16.37 14.929-13.723 17.333-20.464 36.112-10.594 36.6-10.354 40.928-.481 20.464 1.444 23.355a28.369 28.369 0 0 1 4.094 12.279c.481 4.813 4.335 7.463 5.538 10.351s.481 9.388.722 11.316 6.019 12.52 6.5 14.2 1.444-1.925 2.406 0a28.154 28.154 0 0 1 3.131 11.8c0 5.054-6.5 5.3-4.816 9.87s17.817 31.3 24.558 40.928 24.555 25.28 29.852 28.411z" transform="translate(-241.737 -131.518)"/><path d="m304.363 246.07c.507 2.873-12.638-5.057-13.36-7.4s5.779 3.43 5.054.9-2.888-4.694-1.444-5.057 9.208 8.487 9.75 11.557z" transform="translate(-219.922 -8.809)"/><path d="m300.633 247.553c-2.09-.864-6.5-1.627-5.779-4.514s-3.972-11.015-5.236-12.638-4.335-3.792-2.888-4.155 3.43 2.169 5.958 5.057 8.124 13 9.209 14.445 2.911 3.527-1.264 1.805z" transform="translate(-228.651 -24.557)"/><path d="m329.875 241.942c.1-1.882 1.627-4.152-1.081-4.335s-5.057 7.405-4.877-4.694.844-16.973 3.131-18.237 2.009-2.888 3.14-5.057-1.395-2.888.771-7.4.722-8.666 0-11.195 1.444-5.056 5.6-6.321 7.582-1.084 10.832-1.806 2.708-3.43 5.6-1.986 4.152 6.5 6.68 4.514 3.613-.722 2.891 1.084-1.908 3.972.217 6.138 1.406 5.419 1.948 9.029-3.43.542-3.792 2.891 2.891 3.372 3.792 6.651.9 6.35-2.708 7.251-9.391-1.806-10.655.722-4.564 5.416-6.8 7.222-2.23-.542-4.036 2.348-7.06 11.557-8.046 12.459-2.706 2.68-2.607.722z" transform="translate(-157.318 -111.396)"/><path d="m317.539 193.527c-1.4 2.134-5.236.183-4.514-2.708s-2.525-6.138 1.806-6.86 4.335 1.986 5.958-.9a9.62 9.62 0 0 1 4.514-3.972s5.419-4.332 4.155-.539-10.258 12.452-11.919 14.979z" transform="translate(-178.929 -118.055)"/><path d="m325.243 189.591c-2.03-.339-5.779-1.806 0-3.613s13.543-8.307 16.973-7.043 1.447 4.819 1.447 4.819-13.001 6.739-18.42 5.837z" transform="translate(-160.631 -114.659)"/><path d="m345.147 204.785c-6.75 2.812-9.107-9.029-6.179-8.307s5.457-2.888 8.707-.36 1.806 6.86-2.528 8.667z" transform="translate(-131.059 -83.448)"/><path d="m351.556 190.585c-6.669-2.74-9.208-4.332-8.666-5.6s-1.084-7.663 2.888-3.381 6.792 9.396 5.778 8.981z" transform="translate(-121.397 -112.043)"/><path d="m528.971 333.522c0-.9-2.354-1.618-3.25 2.714s1.618 10.287-2.714 9.014c-4.335-1.255-6.312-5.056-7.944-7.222a63.315 63.315 0 0 0 -4.146-4.868c-2.354-2.7-7.759-7.756-6.312-9.2s.722-2.54 4.143-.374 9.029 6.153 9.391 8.321 2.021 10.3 4.694 8.666 1.444-14.822 1.084-18.057c-.362-3.265.36-18.243-.536-22.044-.91-3.784-2.714-7.567-3.8-7.756s-1.632 1.084-1.084 3.972 2.891 8.652.174 5.5c-2.7-3.163-7.222-7.669-5.59-8.031s2.166 3.424 2.528 0-.722-6.86 1.27-5.779-3.987-19.313-4.158-23.111-20.11-57.594-88.42-86.672-83.653-7.585-83.653-7.585c-.91 1.444-10.487 4.161-11.209 6.141s-1.447 1.632-4.335 1.977c-2.888.377-9.562 1.444-4.146 1.821 5.416.345 22.752-3.987 30.525-4.709 7.756-.722 11.366.722 16.422 1.27s17.306.722 17.306.722-1.922 4.538 3.033 4.074 6.2 1.157 7.828 2.067-2.166 1.632-1.444 2.528 5.419 1.081 12.812 5.95c7.411 4.883 10.49 2.717 12.83 3.265s-7.4.536-3.25 3.787 13.723 5.46 13.908 8.144-1.1 7.08.536 9.217 2.888 5.2 4.868 9.188c1.992 3.958 9.388 8.118 3.265 7.57-6.155-.536-10.113-.9-7.6-2.169 2.543-1.255 3.987-5.4.377-4.68s-16.077.9-17.524 2.166.722 4.335 1.98 10.287.91 7.77.188 14.8-.536 6.645 1.255 11.267c1.821 4.625 5.6 7.324 6.326 5.706s-1.081-7.625 2.717-5.706 6.312 6.428 7.57 7.512 3.436 1.98 3.987 0c.534-1.977-3.613-9.577-3.079-11.021s-1.977-3.613-1.977-3.613-3.439-2.34-4.161-5.4-.174-2.543-1.618-5.6-3.076-6.5-1.632-6.5 2.354.9 3.613 5.228 2.354 5.057 3.25 5.967 4.506 2.528 6.327 2.166c1.792-.359 1.618-5.057 4.146-4.332s-3.25 3.236-1.98 5.59 6.5 4.883 6.312 5.964-4.694-1.632-4.332.188c.359 1.792 3.436 5.4 4.332 6.674s.536 5.416-1.255 4.694c-1.821-.722-1.821-4.694-3.076-1.084s-.536 5.057-2.528 5.952-.362 0-1.995.91-4.146 1.98-5.4 0c-1.273-1.98 0-2.888-1.632-4.694s-3.25-4.883-3.424-2.717a5.928 5.928 0 0 0 1.444 5.245c1.618 2.166 3.613 3.421 3.236 5.242-.345 1.792-3.784 1.98-4.332 5.952s.722 3.784-.722 5.778-1.447 1.992-1.447 3.784a7 7 0 0 1 -1.977 4.607c-.91.823-3.25-2.079-2.7 0s2.166 2.8.348 3.337c-1.792.548-6.126.548-5.057 1.632a9.424 9.424 0 0 0 5.242 1.98c1.447 0 3.25 2.714 4.335 4.332s1.806 5.245 1.444 6.5c-.36 1.273-8.3 3.439-10.832 4.161s-3.972.722-4.146 1.995c-.188 1.255.345 4.146 1.792 7.034s-1.07 4.52-.174 6.312c.9 1.821 2.888 3.439 2.166 5.057s2.169-.348 5.23.91 1.992 3.8 4.52 2.354.533-2.888 2.7-3.439 4.52.722 4.709-1.27 3.236-7.4 2.888-7.944c-.374-.536-2.888-.536-1.632-2.891s4.335-8.84 4.335-9.736-3.25-4.52 0-4.883 3.076.722 4.335-.722 1.632-7.77 4.868-7.048c3.265.722 5.056 3.439 8.133 3.8s7.944 1.258 9.388 3.613-1.255 6.686-1.255 6.686-2.891 1.258-1.995 1.98 5.6 1.444 5.6.722-2.714-1.806-1.444-3.076 1.98-5.4 1.444-6.312-3.8-1.98-1.992-2.7 3.972.348 3.436-1.1-4.332-2.511-6.152-2.7c-1.792-.188-4.68-.362-6.312-1.444s-3.613-1.806-3.972-3.079c-.362-1.255-3.25-4.52-.722-4.059s4.506 2.615 6.86 2.8 10.458 1.632 10.371 2.528-1.169 1.992 1.545 3.439 5.057 3.062 5.779 4.506 1.995 4.335 2.717 1.995c.722-2.357.174-4.712.348-6.155s-7.037-3.062-5.057-4.146 2.714-1.084 2.543-2.354c-.188-1.255-.91-5.242 1.977-2.615s4.694 7.324 7.411 7.324 2.34-.374 2.888-2.166c.536-1.821.536-2.166 2.7-2.354s1.084-7.034 2.891-5.057 5.59 11.917 5.776 14.807-3.421 3.439-4.332 5.6-1.632 5.952-5.967 6.312-5.95 0-7.222 2.891c-1.255 2.888.91 4.564-.174 7.7s-1.082 4.219-4.161 3.134c-3.062-1.084-5.228 1.444-5.59-.534-.36-1.995-4.868 3.062-7.222 2.514s-1.256-1.447-3.25-1.98-.548-1.212-.9-3.134c-.374-1.922-3.265-4.277-2.354-5s-.36-2.7-1.806-1.444.362 1.632-3.062 3.265-5.431 1.661-7.222 3.178c-1.821 1.5-.548 1.69-3.61 2.775-3.079 1.081-4.523.171-4.523 1.992 0 1.792-1.444 3.062-3.972 4.68s-1.444 2.357-3.784 2.891-4.335-.174-5.434 0c-1.067.188-3.61.188-3.421 1.992s-.362 5.952-1.98 7.051c-1.632 1.067-2.166 0-2.888 3.61s.345 3.236.533 5.952-1.444 6.86-4.335 8.492-4.938-.91-5 2.169c-.058 3.062-1.5 4.332-2.586 5.95s-1.273 1.806-.9 5.057c.345 3.25-4.161 3.787-4.883 7.222s-1.618 3.613-.548 5.779c1.1 2.166 2.888 3.439 2.166 7.4-.722 3.987-1.98 5.6-2.514 7.77s1.618 4.883 1.792 7.585 3.439 2.528 5.242 4.868 4.7 1.995 5.59 4.161c.91 2.166 3.265 1.992 5.433 3.25s2.7 3.8 8.478 2.7c5.779-1.067 5.419-3.421 9.751-4.143s4.335-1.806 9.751-3.613 6.5-6.312 10.3-7.582 4.868-1.995 6.848-1.084-3.236 4.332.91 2.528 4.335-4.883 7.756-4.509c3.439.348 1.821.9 1.1 4.335s-4.52 7.944-3.265 8.84 5.6 1.444 6.689 3.439c1.081 1.977-2.528 3.062-1.258 5.4s2.34 2.543.536 3.613c-1.806 1.1-6.66 9.5-8.307 11.742s-1.273 4.694 1.618 5.245c2.888.533 52.552-71.157 56.886-89.562 4.348-18.429 1.819-40.818 1.819-41.714zm-40.98-45.5c-3.987 1.081-.91 6.715-2.354 7.582-2.108 1.273-6.689 3.613-7.585-2.525s-5.95-15.892-2.34-13.552 2.688 6.877 4.32 3.439 4.161-4.883 2.354-5.057-2.369 3.25-2.354-.722-1.458-7.77 0-5.6-.363 5.245 4.161 5.245 7.222-1.632 7.756 2.166 0 7.937-3.958 9.021zm14.619-11.922c-2.83 0-3.062-5.056-6.863-5.967s-7.582-1.07-8.478-6.124-2.891-11.557-1.1-10.113c1.821 1.444 3.439 6.732 3.987 6.79s4.132 2.05 3.874 1.328 2.441-2.34 3.163-.548c.722 1.818.359 3.221 1.082 4.23s4.509 4.088 5.6 5.26c1.074 1.171 1.263 5.144-1.265 5.144z" transform="translate(-166.82 -143.93)"/><path d="m357.993 230.116c.2.534 1.444-3.972 5.236-4.877s4.816-1.444 3.853-3.068-1.687-.9-1.325-2.528-3.792-2.891-4.514-4.155-2.708-2.888-3.25-3.79-2.708-.9-2.891-2.169 1.986-4.332 0-4.332-3.61 1.081-3.61 0 .722-5.091-1.264-2.725-.9 4.349-.9 5.613 2.346 4.152 2.166 4.694.542-2.708 1.084-1.624-.362 2.708.722 2.528 3.43-.183 3.61.722 1.551 2.346 1.316 2.888-2.038 1.084-1.859 1.627.722.9.722 1.8-1.444 2.528-.722 2.711 3-1.806 1.859.36a8.321 8.321 0 0 0 -.233 6.325z" transform="translate(-109.597 -71.041)"/><path d="m350.228 217.738c-1.577-.351-.542-3.43-.362-4.694s-2.166-.9-2.166-3.07 2.891-.36 2.528-1.986.9-1.25 2.348-1.345 1.8 2.609 2.346 3.694 1.627 1.624 0 3.068-3.067 4.695-4.694 4.333z" transform="translate(-112.125 -61.733)"/><path d="m367.106 223.38c-1.974-.728-2.708-4.511-2.346-5.236s3.61-2.166 3.972.9 1.807 5.6-1.626 4.336z" transform="translate(-79.89 -41.736)"/><path d="m324.942 187.815c-1.684-.847-5.958-3.186-4.514-4.482s4.694-3.462 4.514-.934 2.537 6.689 0 5.416z" transform="translate(-164.482 -109.995)"/><path d="m321.88 183.868c-2.256.644-5.068 1.113-5.248 0s1.624-2.92 3.071-2.92 4.224 2.334 2.177 2.92z" transform="translate(-171.159 -110.53)"/><path d="m370.358 188.669c-2.079 2.079-3.613 1.081-4.877 0s-9.029-5.419-11.737-7.043-5.6-4.013-5.416-4.445 3.07-.612 4.152 1.015 8.487 5.416 11.557 6.68 8.307 1.807 6.321 3.793z" transform="translate(-110.947 -118.251)"/></g><path d="m444.347 320.6c-43.642 0-87.37-9.626-120.7-28.869-32.178-18.576-50.052-43.282-50.339-69.565l1.766-.017c.278 25.634 17.843 49.8 49.455 68.052 65.892 38.043 172.769 38.237 238.249.432 31.69-18.3 48.988-42.615 48.707-68.478l1.766-.017c.29 26.527-17.321 51.4-49.591 70.026-32.841 18.968-76.033 28.436-119.313 28.436z" fill="#fff" transform="translate(-253.417 -32.288)"/><path d="m326.341 468.825c-23.033-12.856-35.718-40.342-35.718-77.388 0-75.509 53.532-167.849 119.336-205.84 30.133-17.4 58.985-21.137 81.241-10.519l-.76 1.595c-21.716-10.357-49.983-6.642-79.6 10.455-65.318 37.71-118.455 129.362-118.455 204.309 0 36.379 12.363 63.314 34.813 75.845z" fill="#fff" transform="translate(-220.537 -132.933)"/><path d="m468.927 468.824-.861-1.542c22.45-12.531 34.813-39.467 34.813-75.845 0-74.947-53.14-166.6-118.455-204.309-29.617-17.1-57.884-20.809-79.6-10.455l-.76-1.595c22.256-10.615 51.108-6.88 81.241 10.519 65.8 37.991 119.336 130.331 119.336 205.84.003 37.045-12.681 64.531-35.714 77.387z" fill="#fff" transform="translate(-195.001 -132.932)"/><path d="m0 0h1.767v337.16h-1.767z" fill="#fff" transform="translate(188.982 21.287)"/><path d="m612.415 312.105h-1.769c0-74.746-75.228-135.553-167.7-135.553s-167.7 60.806-167.7 135.553h-1.769c0-75.721 76.022-137.321 169.464-137.321s169.474 61.601 169.474 137.321z" fill="#fff" transform="translate(-253.085 -122.238)"/></g><path d="m284.1 367.078v2.253c4.5 2.638 14.593 1.241 17.231 0 1.737-2.627 6.442-1.931 9.084-.887 10.09.887 13.781-.606 17.153-3.07 1.708-1.25 4.77-4.506 4.4-7.959-12.003 2.756-47.868 9.663-47.868 9.663z" fill="#606bf1" fill-rule="evenodd" transform="translate(-93.171 282.948)"/><path d="m302.1 354.724s11.024 3.105 17.544 4.036 11.177-.154 12.728 2.175-1.862 8.382-7.605 10.4-17.544-.31-21.89.62-15.37 2.946-18.008.232 0-15.909 0-15.909z" fill="#56548c" fill-rule="evenodd" transform="translate(-93.94 277.838)"/><path d="m269 365.141 19.722-22.082c7.863-2.247 16.135-2.717 15.083 4.543-.931 6.443-11.186 9.258-18.237 15.521l-6.5 5.773c-4.674 4.149-10.644.519-10.067-3.755" fill="#56548c" fill-rule="evenodd" transform="translate(-121.937 252.899)"/><path d="m319.624 276.67c4.309-2.636 9.991-8.539 11.853-13.189 1.618-4.045 3.256-8.179 3.479-12.531a19.987 19.987 0 0 0 -2.734-11.1 2.089 2.089 0 0 0 -.618-.736c-.977-.635-2.128.493-2.751 1.479-3.517 5.584-6.672 11.824-11.081 16.738a22.491 22.491 0 0 1 1.853-5.868c1.421-2.905-1.055-2.8-1.055-2.8-1.659 1.055-6.454 8.82-7.135 11.7s-2.412 10.29-2.412 10.29l.9.815c-.719 1.021-1.192 1.647-1.192 1.647s7.939 5.355 10.893 3.555z" fill="#ffc8af" fill-rule="evenodd" transform="translate(-46.391 57.887)"/><path d="m278.775 258.175s-27.243 9.9-6.022 37.988z" fill="#56548c" fill-rule="evenodd" transform="translate(-130.097 94.454)"/><path d="m283.568 239.647c5.857-.957 13.842-1.139 19.5.531 9.513 2.809 14.712 8.889 17.008 17.915 2.317 9.1 3 24.265-2.212 32.717-3.256 5.286-10.507 4.291-15.689 2.917-6.263-1.661-14.454-4.361-19.591-8.24-7.153-5.407-10.937-17.237-11.374-25.793-.377-7.37 3.433-18.585 12.363-20.046" fill="#ffc8af" fill-rule="evenodd" transform="translate(-117.723 57.887)"/><path d="m278.723 254.318a19.3 19.3 0 0 0 2.436 2.23 44.522 44.522 0 0 0 16.283 7.95c1 .264 2.079.5 3.189.693l-.5 5.706c-6.654 1.826-13.123-.986-17.721-2.264-3.427-.948-8.739-1.821-8.739-5.425l5.036-8.9z" fill="#ffc8af" fill-rule="evenodd" transform="translate(-112.994 87.116)"/><path d="m276.345 245.663c-5.7 3.781-5.425 12.925-5.123 18.9.438 8.553 4.375 19.849 11.528 25.257 3.952 2.983 4.129 3.323 9.426 4.975a30.081 30.081 0 0 0 3.056-2.067 8.661 8.661 0 0 0 3.274-9.466c-1.064-3.447-1.171-7.582.78-8.643 3.186-1.743 5.315 4.445 5.315 4.445 1.835-.676 4.639-2.8 3.094-6.474a10.966 10.966 0 0 1 0-7.536c5.648.11 8.278-7.585 10.064-8.588 3.816-2.146 5.094-3 4.482-6.625a11.2 11.2 0 0 0 -3.137-6.379c-1.992-1.859-8.7-4.407-11.348-5.068-15.705-3.934-27.81-1.133-31.411 7.269z" fill="#606bf1" fill-rule="evenodd" transform="translate(-117.893 53.553)"/><path d="m279.155 365.016 6.5-5.773c7.051-6.263 17.307-9.078 18.237-15.521v-.006-.035-.009-.009-.009a6.943 6.943 0 0 1 -.012 2.177c-.931 6.443-11.186 9.258-18.237 15.52l-6.5 5.773c-5.512 4.891-11.328 1.4-10.067-5.845-.577 4.274 5.393 7.9 10.067 3.755" fill="#606bf1" fill-rule="evenodd" transform="translate(-122.025 256.778)"/><path d="m270.657 303.154c-6.808 9.641 10.217 36.327 5.561 69.548-3.157 22.531-9.316 60.354-7.843 81.7.267 3.891 15.468 6.672 19.588-12.148 7.008-32 15.787-51.969 18.875-76.8l-1.638-72.013z" fill="#717bdb" fill-rule="evenodd" transform="translate(-123.473 161.438)"/><path d="m276.6 295.582c-1.882 29.922 19.556 66.535 18.139 90.69-1.464 24.912 1.247 55.2 1.316 82.163 0 0 22.021 10.429 23.01-5.689 3.236-52.815 13.349-69.272-.3-165.912z" fill="#878cf0" fill-rule="evenodd" transform="translate(-107.642 165.504)"/><path d="m337.06 340.2c.765-28.829-4.61-57.237-4.61-57.237a39.373 39.373 0 0 0 -9.4-9.585l-7.05-8.528a252.216 252.216 0 0 1 -26.353-8.005l-12.769 3.855c-10.394 4.4-13.821 17.852-9.194 31.273-.113.6 10.568 31.076 11.766 42.354.11 1.108-7.878 31.015-9.629 43.213 0 0 7.6 6.944 9.7 8.7 15.451 19.174 65.947-4.076 67.849-14.282.705-3.823-5.5-15.687-10.31-31.758z" fill="#56548c" fill-rule="evenodd" transform="translate(-128.2 91.927)"/><path d="m294.41 317.332c-10.209.249-19.1-13.349-13.52-21.9 1.983-3.047 3.833-5.59 7.24-6.567 8.431-2.415 33.529 3.415 49.533 3.816 12.8-15.6 26.97-43.366 26.97-43.366 10 .664 12.8 7.869 12.8 7.869-21.606 55.616-28.71 56.466-29.91 57.753s-53.003 2.392-53.113 2.395z" fill="#56548c" transform="translate(-102.548 77.614)"/><path d="m399.881 366.046v2.254c-4.5 2.638-14.593 1.241-17.231 0-1.737-2.627-6.442-1.931-9.084-.89-10.09.89-13.781-.6-17.153-3.07-1.708-1.247-4.77-4.5-4.4-7.956 12.005 2.755 47.868 9.662 47.868 9.662z" fill="#56548c" fill-rule="evenodd" transform="translate(35.753 280.987)"/><path d="m382.636 353.692s-11.024 3.105-17.544 4.036-11.177-.157-12.728 2.175 1.861 8.382 7.605 10.4 17.544-.31 21.89.621 15.37 2.946 18.008.232 0-15.912 0-15.912z" fill="#878cf0" fill-rule="evenodd" transform="translate(35.766 275.878)"/><path d="m406.493 364.11-19.722-22.082c-7.863-2.25-16.135-2.717-15.083 4.543.931 6.442 11.186 9.258 18.237 15.52l6.5 5.77c4.674 4.149 10.644.522 10.067-3.752" fill="#878cf0" fill-rule="evenodd" transform="translate(73.011 250.937)"/><path d="m396.427 363.981-6.5-5.77c-7.051-6.263-17.306-9.078-18.237-15.52v-.035-.009-.009-.038a6.946 6.946 0 0 0 .012 2.177c.931 6.442 11.186 9.258 18.237 15.52l6.5 5.773c5.512 4.891 11.328 1.4 10.067-5.845.577 4.274-5.393 7.9-10.067 3.752" fill="#56548c" fill-rule="evenodd" transform="translate(73.011 254.818)"/><path d="m407.294 302.122c6.808 9.641-10.218 36.327-5.561 69.548 3.157 22.531 9.316 60.351 7.843 81.7-.267 3.891-15.468 6.671-19.588-12.148-7.008-32-15.787-51.969-18.875-76.8l1.638-72.012z" fill="#112b46" fill-rule="evenodd" transform="translate(72.089 159.477)"/><path d="m408.253 294.55c1.882 29.922-19.556 66.532-18.139 90.687 1.464 24.912-1.247 55.2-1.316 82.166 0 0-22.021 10.429-23.01-5.691-3.236-52.815-13.349-69.27.3-165.909z" fill="#112b46" fill-rule="evenodd" transform="translate(49.352 163.544)"/><path d="m399.626 246.332c.992-4.949.522-13.131-1.626-17.654-1.87-3.935-3.793-7.947-6.834-11.067a19.975 19.975 0 0 0 -10.009-5.535 2.063 2.063 0 0 0 -.957-.049c-1.131.287-1.087 1.9-.786 3.024 1.711 6.373 4.146 12.928 4.758 19.5a22.528 22.528 0 0 1 -3.05-5.346c-1.166-3.015-2.772-1.131-2.772-1.131-.354 1.934 2.085 10.728 3.74 13.189s7.127 8.649 7.127 8.649c.258 1.218.4 1.992.4 1.992s9.325-2.177 10.009-5.572z" fill="#ffc8af" fill-rule="evenodd" transform="translate(85.772 6.725)"/><path d="m381.024 320.744s13.842-35.115 14.8-46.208-7.489-41.322-7.489-41.322 7.327-10.9 12.305-11.919c12.085 25.436 15.347 46.15 15.347 59.754s-14.766 63.551-14.587 63.183-32.53 3.407-20.376-23.488z" fill="#ec827d" transform="translate(85.772 24.404)"/><path d="m367.039 337.826c-.765-28.829 4.61-57.237 4.61-57.237a39.374 39.374 0 0 1 9.4-9.585l12.96-7.318c5.007-1.229 4.042-3.816 8.927-5.332a41.452 41.452 0 0 1 24.283-.029c10.394 4.4 12.386 11.412 7.762 24.833.113.6-2.566 35.436-3.763 46.715-.11 1.11 1.308 41.722 3.059 53.923 0 0-7.6 6.944-9.7 8.7-20.157 11.183-62.743.27-64.645-9.939-.704-3.821 2.296-28.663 7.107-44.731z" fill="#ec827d" fill-rule="evenodd" transform="translate(50.668 91.312)"/><path d="m371.563 243s-2.752 10.151-3.268 12.215a19.589 19.589 0 0 0 0 6.367c.171 1.374-2.238 5.161-1.893 6.88s1.893 12.044 5.161 14.967 9.29 1.893 9.29 1.893-.516 9.119 0 10.322 14.625.174 20.473-3.268 3.787-12.731 3.787-12.731l-14.971-36.645z" fill="#ffc8af" transform="translate(63.079 65.632)"/><path d="m368.611 253.842s-1.548-7.225 0-12.386 15.483-4.645 20.386-3.1 22.195 7.225 23.227 11.354a16.523 16.523 0 0 1 0 7.741s3.355 5.68 2.838 9.035-12.9 24-12.9 24-7.86 1.032-10.641-1.29-5.361-11.354-8.974-12.386-4.9 5.677-4.9 5.677l-2.322-1.806s1.29-7.483-.258-10.064a22.869 22.869 0 0 0 -3.871-4.645l2.064-8z" fill="#2b386d" transform="translate(66.031 54.791)"/><path d="m364.044 292.953c-4.607 2.067-12.694 3.424-17.579 2.334-4.25-.951-8.591-1.934-12.3-4.21a19.965 19.965 0 0 1 -7.62-8.527 2.117 2.117 0 0 1 -.261-.925c.032-1.166 1.609-1.482 2.775-1.435 6.593.252 13.529 1.174 20.073.31a22.556 22.556 0 0 0 -5.889-1.789c-3.2-.467-1.716-2.453-1.716-2.453 1.806-.771 10.925-.345 13.688.722l9.855 3.824.162 1.206c1.247-.017 2.029-.052 2.029-.052s-.061 9.577-3.217 10.995z" fill="#ffc8af" fill-rule="evenodd" transform="translate(-13.067 128.052)"/><path d="m436.724 285.791c5.973-8.284-.229-23.3-10.441-23.529-3.633-.084-6.779.006-9.507 2.264-6.756 5.593-16.121 29.6-24.83 43.03-20.11 1.751-51.021-2.241-51.021-2.241-5.1 8.629-.739 15.01-.739 15.01 58.1 13.587 62.813 8.205 64.552 7.942s31.919-42.383 31.986-42.476z" fill="#ec827d" transform="translate(10.049 102.181)"/><path d="m399.174 210.062a11.895 11.895 0 1 0 -20.983 7.666l9.089 10.878 9.139-10.878-.029-.026a11.841 11.841 0 0 0 2.784-7.64z" fill="#ec827d" fill-rule="evenodd" transform="translate(80.203 -19.528)"/><circle cx="467.482" cy="190.533" fill="#d16565" r="6.284"/><path d="m372.768 209.094a11.895 11.895 0 1 0 -20.983 7.666l9.09 10.879 9.139-10.879-.032-.026a11.828 11.828 0 0 0 2.786-7.64z" fill="#ec827d" fill-rule="evenodd" transform="translate(30.05 -21.366)"/><path d="m363.483 205.419a6.284 6.284 0 1 1 -6.286-6.286 6.285 6.285 0 0 1 6.286 6.286z" fill="#d16565" fill-rule="evenodd" transform="translate(33.725 -17.691)"/><path d="m476.638 336.317c-.5-43.036-61.722-102.824-114.938-112.236-21.917-3.874-51.056-.539-65.387 37.362l-1.693-.49c10.232-50.07 52.41-76 89.67-79.487 35.776-3.349 66.054 13.34 79.626 43.688 6.353-23.117 20.432-36.222 38.162-35.175 19.519 1.151 36.863 18.988 39.481 40.606l-1.754.212c-2.519-20.8-19.136-37.95-37.834-39.052-17.6-1.035-31.122 12.207-36.988 36.347l-.647 2.65-1.032-2.522c-12.723-31.113-42.931-48.347-78.849-44.993-34.024 3.184-72.218 25.41-85.515 68.011 15.755-30 42.5-32.534 63.068-28.892 53.892 9.526 115.892 70.231 116.392 113.954z" fill="#fbd15b" transform="translate(-73.199 -52.051)"/><path d="m314.605 219.621a11.895 11.895 0 1 0 -20.983 7.666l9.09 10.876 9.139-10.876-.029-.026a11.841 11.841 0 0 0 2.783-7.64z" fill="#ec827d" fill-rule="evenodd" transform="translate(-80.425 -1.371)"/><path d="m305.32 215.946a6.284 6.284 0 1 1 -6.286-6.286 6.285 6.285 0 0 1 6.286 6.286z" fill="#d16565" fill-rule="evenodd" transform="translate(-76.75 2.304)"/><path d="m377.39 246.487a11.895 11.895 0 1 0 -20.98 7.666h-.006l9.093 10.879 9.136-10.879-.029-.026a11.841 11.841 0 0 0 2.786-7.64z" fill="#ec827d" fill-rule="evenodd" transform="translate(38.827 49.664)"/><path d="m368.1 242.812a6.284 6.284 0 1 1 -6.283-6.283 6.285 6.285 0 0 1 6.283 6.283z" fill="#d16565" fill-rule="evenodd" transform="translate(42.502 53.339)"/><path d="m479.342 219.321c0 17.443-12.32 24.468-27.521 15.692s-27.521-30.029-27.521-47.469 12.322-24.468 27.521-15.691 27.521 30.029 27.521 47.468z" fill="#bee1f4" fill-rule="evenodd" transform="translate(173.115 -76.687)"/><path d="m469.572 210.946c0 13.7-9.678 19.217-21.618 12.325s-21.618-23.59-21.618-37.289 9.678-19.22 21.618-12.325 21.618 23.587 21.618 37.289z" fill="#3e7eff" fill-rule="evenodd" transform="translate(176.982 -71.719)"/><text fill="#fff" font-family="Roboto-Bold, Roboto" font-size="33" font-weight="700" transform="translate(614.11 134.868)"><tspan x="0" y="0">$</tspan></text><path d="m512.333 467.7-112.468-64.939a17.627 17.627 0 0 1 -8.814-15.265v-110.734a8.872 8.872 0 0 1 13.305-7.683l112.467 64.935a17.628 17.628 0 0 1 8.814 15.265v110.733a8.871 8.871 0 0 1 -13.304 7.688z" fill="#e6f0ff" fill-rule="evenodd" transform="translate(109.962 112.883)"/><path d="m425.317 352.1-16.427-9.484v-44.684l16.427 9.484z" fill="#ec827d" fill-rule="evenodd" transform="translate(143.846 169.969)"/><path d="m416.4 358.017-16.427-9.484v-61.577l16.427 9.484z" fill="#606bf1" fill-rule="evenodd" transform="translate(126.9 149.119)"/><path d="m434.24 387.242-16.427-9.484v-90.458l16.427 9.484z" fill="#fbd15b" fill-rule="evenodd" transform="translate(160.793 149.765)"/><path d="m393.2 466.144-80.4-46.422a12.6 12.6 0 0 1 -6.3-10.913v-79.166a6.341 6.341 0 0 1 9.513-5.491l80.406 46.422a12.6 12.6 0 0 1 6.3 10.913v79.165a6.342 6.342 0 0 1 -9.519 5.492z" fill="#e44e83" fill-rule="evenodd" transform="translate(-50.644 218.137)"/></svg>