<svg xmlns="http://www.w3.org/2000/svg" xmlns:xlink="http://www.w3.org/1999/xlink" width="500" zoomAndPan="magnify" viewBox="0 0 375 374.999991" height="500" preserveAspectRatio="xMidYMid meet" version="1.0"><defs><clipPath id="af2c9dce93"><path d="M 58 80 L 317 80 L 317 329.058594 L 58 329.058594 Z M 58 80 " clip-rule="nonzero"/></clipPath><clipPath id="3a174eb9d2"><path d="M 152 62.058594 L 223 62.058594 L 223 132 L 152 132 Z M 152 62.058594 " clip-rule="nonzero"/></clipPath></defs><rect x="-37.5" width="450" fill="#ffffff" y="-37.499999" height="449.999989" fill-opacity="1"/><rect x="-37.5" width="450" fill="#ffffff" y="-37.499999" height="449.999989" fill-opacity="1"/><rect x="-37.5" width="450" fill="#ffffff" y="-37.499999" height="449.999989" fill-opacity="1"/><g clip-path="url(#af2c9dce93)"><path fill="#3e7eff" d="M 216.382812 148.25 L 216.382812 218.519531 C 215.027344 219.582031 213.675781 220.625 212.320312 221.652344 C 196.308594 233.789062 177.667969 245.613281 158.316406 254.535156 L 158.316406 206.398438 C 158.316406 174.417969 184.449219 148.25 216.382812 148.25 Z M 144.152344 131.472656 C 147.242188 129.128906 150.347656 126.859375 153.464844 124.667969 C 154.824219 126.328125 156.300781 127.886719 157.886719 129.332031 C 154.582031 131.65625 151.28125 134.058594 147.992188 136.550781 C 86.832031 182.914062 52.855469 241.179688 72.121094 266.667969 C 91.386719 292.152344 156.609375 275.222656 217.769531 228.863281 C 278.929688 182.5 312.90625 124.234375 293.640625 98.746094 C 283.332031 85.109375 259.871094 83.621094 230.910156 92.28125 C 230.699219 90.257812 230.351562 88.273438 229.875 86.34375 C 265.464844 75.84375 295.3125 78.472656 308.917969 96.46875 C 332.769531 128.027344 297.675781 194.882812 230.550781 245.769531 C 225.855469 249.328125 221.125 252.710938 216.382812 255.917969 L 216.382812 270.910156 C 216.382812 302.894531 190.253906 329.0625 158.316406 329.0625 L 158.316406 286.394531 C 116.890625 301.820312 81.078125 301 65.785156 280.769531 C 41.929688 249.214844 77.023438 182.355469 144.152344 131.472656 Z M 144.152344 131.472656 " fill-opacity="1" fill-rule="evenodd"/></g><g clip-path="url(#3a174eb9d2)"><path fill="#ffac00" d="M 187.351562 62.058594 C 206.550781 62.058594 222.125 77.652344 222.125 96.882812 C 222.125 116.109375 206.550781 131.703125 187.351562 131.703125 C 168.148438 131.703125 152.578125 116.109375 152.578125 96.882812 C 152.578125 77.652344 168.148438 62.058594 187.351562 62.058594 Z M 187.351562 62.058594 " fill-opacity="1" fill-rule="evenodd"/></g></svg>