<svg height="564.957" viewBox="0 0 478.857 564.957" width="478.857" xmlns="http://www.w3.org/2000/svg"><path d="m204.291 412.438c.923 1.62 10.341 11.178 10.341 11.178a4.859 4.859 0 0 0 2.334 4.653c12.2 10.844 32.039 23.629 53.293 31.062 2.864 1.021 5.757 1.928 8.649 2.711a2.9 2.9 0 0 1 .756.027c.168.043.321.085.489.126 1.775.559 4.877 2.963 4.877 13 0 0 .7 6.582 1.97 17.383 5.267 44.364 20.5 159.909 38.482 181.833 22.357 27.274 49.548 24.439 79.27-10.481 6.222-7.309 13.7-20.046 21.56-35.9a563.69 563.69 0 0 0 10.8 77.6h218.128v-221.151a81.353 81.353 0 0 0 -8.206-12.4v.01a79.545 79.545 0 0 0 -16.088-18.108c-14.486-12.285-32.857-20.97-47.957-26.67 0 0-15.411-25.426-27-20.847q.472-12.36 1.085-23.367c.125-2.313.256-4.561.388-6.778a164.321 164.321 0 0 0 21.03-30.359c1.749-2.09 3.312-4.165 4.692-6.166a16.668 16.668 0 0 0 4.884.725 18.983 18.983 0 0 0 5.856-.99c9.138.379 18.673-3.345 23.517-9.363 6.61-8.221 9.719-21.715 3.42-32.262a14.944 14.944 0 0 0 -2.2-2.837 21.373 21.373 0 0 0 -3.5-7.473c-.093-.262-.206-.506-.305-.762 5.561-14.8 20.355-60.272-1.861-74.223 0 0 .665-15.579-30-30.6a64.4 64.4 0 0 0 -11.609-4.243c-11.6-5.2-22.517-7.055-28.841-7.055-20.959 0-22.867 4.112-22.867 4.112h.018a306.253 306.253 0 0 0 -45.584 7.177s11.08-21.929 0-25.737c-13.555-4.657-17.747 34-17.747 34s-1.47-32.139-14.475-23.288-7.32 39.965 12.2 53.751c-3.007 12.135-3.241 24.59-2.241 37.169l-.034.046a2.068 2.068 0 0 0 .249 2.535c.479 5.2 1.155 10.425 1.915 15.651-4.933 8.042-7.015 19.513-4.856 31.033 1.749 9.342 5.949 16.924 11.312 21.611.03 1.5.046 3 .026 4.491-.243 17-2 36.029 6.243 51.628 8.618 16.267 27.745 24.172 45.452 20.755q-.055 3.482-.062 6.788h-.01a57.8 57.8 0 0 0 -17.8 19.862c-.267.126-.527.248-.8.379-2.649 1.281-5.484 2.751-8.435 4.411-.118.04-66.7 22.53-120.557 170.513l-34.163-120.935-5.772-20.429s-6.524-17.913-4.428-28.519a21.578 21.578 0 0 0 .348-5.086c-.391-11.36-8.187-28.156-32.025-33.466a48.135 48.135 0 0 1 -21.421-11.387s-8.147 3.241 1.075 13.959c0 0-2.137-.377-5.7-1.216a181.868 181.868 0 0 1 -25.151-7.8c-11.751-4.654-24.424-8.384-29.846-5.994-4.416 1.955-3.214 4.5-3.214 4.5s-8.187 2.11-.978 10.494c-.002.001-3.97 1.874 1.074 10.719z" fill="#231f20" opacity=".15" transform="translate(-200.246 -140.66)"/><path d="m339.495 370.644c-11.639 30.043-39.529 8.957-39.529 8.957 0-10.032-3.1-12.437-4.877-13-.168-.042-.321-.083-.489-.125a2.854 2.854 0 0 0 -.754-.029c-2.893-.783-5.786-1.69-8.65-2.711-21.253-7.433-41.094-20.218-53.293-31.062a4.859 4.859 0 0 1 -2.334-4.654s-9.417-9.558-10.341-11.178c-5.043-8.845-1.075-10.718-1.075-10.718-7.21-8.384.978-10.494.978-10.494s-1.2-2.543 3.214-4.5c5.422-2.39 18.095 1.34 29.846 5.994a181.816 181.816 0 0 0 25.153 7.8c3.562.839 5.7 1.216 5.7 1.216-9.222-10.718-1.075-13.959-1.075-13.959a48.137 48.137 0 0 0 21.421 11.387c23.838 5.31 31.634 22.106 32.025 33.466a21.578 21.578 0 0 1 -.348 5.086c-2.096 10.611 4.428 28.524 4.428 28.524z" fill="#ff9d76" transform="translate(-191.32 -60.284)"/><g fill="#ff7f6a"><path d="m271.993 310.475s1.412 11.639 8.119 19.506c-3.815-3.912-9.921-11-12.547-18.569 0 0-11.585-7.518-13.47-11.919 3.562.839 5.7 1.216 5.7 1.216a77.1 77.1 0 0 0 12.198 9.766z" transform="translate(-168.071 -54.847)"/><path d="m273.625 321.689a20.67 20.67 0 0 1 -3.2-3.059c1.732 1.76 2.975 2.864 3.2 3.059z" transform="translate(-158.314 -43.412)"/><path d="m228.459 326.43c.7-3.492 5.356-2.794 8.617 0s13.274 9.66 17.234 10.536 1.139-26.059 4.657-31.728c0 0-4.192 0-12.809-3.959s-19.478-10.75-28.137-7.238c0 0 3.917-1.843 12.534 2.348s23.988 11.178 23.988 11.178a6.883 6.883 0 0 1 -.933 7.459c-3.027 3.487-29.352-16.783-36.567-10.491 0 0 6.526.7 10.718 3.265s21.657 11.644 24.453 12.109 1.4 8.617-1.4 9.781c0 0-12.111-5.478-17.234-8.328s-5.121 5.068-5.121 5.068z" transform="translate(-190.21 -58.688)"/><path d="m309.609 353.2c-11.639 30.043-39.529 8.957-39.529 8.957 0-10.032-3.1-12.436-4.877-13 10.158 2.516 21.672 3.676 27.527-2.864 7.742-8.635-1.564-19.478-1.872-20 .308.391 9.782 0 14.672-6.706a21.584 21.584 0 0 1 -.348 5.086c-2.097 10.611 4.427 28.527 4.427 28.527z" transform="translate(-161.434 -42.837)"/></g><path d="m387.978 549.221c-29.721 34.92-56.913 37.755-79.27 10.481-17.983-21.924-33.214-137.468-38.482-181.833-1.272-10.8-1.97-17.383-1.97-17.383 21.966 9.208 39.529-8.957 39.529-8.957l5.772 20.429 34.164 120.942c53.908-148.116 120.56-170.515 120.56-170.515 7.713 33.505-50.581 191.933-80.303 226.836z" fill="#0172ce" transform="translate(-159.61 -41.17)"/><path d="m586.4 387.067c-1.957-16.625-11.636-30.119-24.3-40.861-14.486-12.285-32.857-20.97-47.957-26.67a221.284 221.284 0 0 0 -28.471-8.757s-.6 27.185-31.8 25.4c-6.085-.344-11.743-11.058-10.585-18.729a127.225 127.225 0 0 0 -18.643 7.457c-21.958 10.628-56.6 33.786-65.6 76.728-.6 2.813-1.086 5.729-1.444 8.714-2.567 21.33-6.9 121.113 14.138 202.193h198.811c8.8-39.041 13.579-83.019 15.85-122.262z" fill="#3e7eff" transform="translate(-107.542 -48.104)"/><path d="m402.318 329.011 9.519 18.791 2.748 13.973s-19.048 121.651-19.048 209.525l9.994 12.226 15.663-9.782s-10.377-54.378 1.174-210.139l7.716-14.058 29.338-18.863s-42.082-16.624-57.104-1.673z" fill="#fff" transform="translate(-83.56 -40.936)"/><path d="m422.588 346.128c9.882-9.489 28.912-25.873 30.738-34.53 2.607-12.357-40.166-3.5-40.166-3.5s-6.88 16.069-7.419 26.9l5.832 9.109z" fill="#0172ce" transform="translate(-77.463 -51.541)"/><path d="m410.718 365.368s.895 12.647 10.3 12.647a46.987 46.987 0 0 0 32.53-12.647c.385-17.742 1.04-33.875 1.828-48.209q.534-9.856 1.142-18.557c2.529-37 5.586-57.842 5.586-57.842s-45.185 7.857-48.414 42.743q-.815 8.677-1.387 16.7c-1.613 21.843-2.114 40.072-1.856 55.229.053 3.468.146 6.776.271 9.936z" fill="#ff7f6a" transform="translate(-74.688 -89.941)"/><path d="m456.518 276.967q-.6 8.7-1.142 18.557c-9.376 15.085-24.915 34.328-44.928 38.276-.257-15.157.243-33.386 1.856-55.229z" fill="#e27954" transform="translate(-74.688 -68.306)"/><ellipse cx="23.786" cy="34.421" fill="#404041" rx="23.786" ry="34.421" transform="matrix(.998 -.059 .059 .998 269.962 110.731)"/><path d="m527.477 230.055a171.325 171.325 0 0 1 -4.844 36.2 262.248 262.248 0 0 1 -20.285 54.972c-8.043 16.227-20.215 34.142-35.37 47.256-9.4 8.143-19.943 14.443-31.357 17.357-18.357 4.671-38.87-3.229-47.885-20.242-8.243-15.6-6.486-34.629-6.243-51.628.514-37.957-16.371-78.514-5.486-115.841a38.266 38.266 0 0 1 19.1-23.686c33.043-17.857 98.785-17.47 122.57 16.13 6.529 9.213 9.3 20.685 9.729 31.969.094 2.484.127 4.998.071 7.513z" fill="#ff9d76" transform="translate(-97.418 -136.579)"/><path d="m487.237 227.524a262.238 262.238 0 0 1 -20.285 54.976c-8.043 16.227-20.215 34.142-35.37 47.256 43.142-41.272 32.255-101.542 32.255-101.542z" fill="#ff7f6a" transform="translate(-62.022 -97.849)"/><path d="m453.091 246.4c10.631-14.17 35.062-22.641 43.57-8.393 6.3 10.547 3.19 24.041-3.42 32.262-9.389 11.665-36.4 14.75-43.97-4.066-2.719-6.763-.692-13.792 3.82-19.803z" fill="#ff9d76" transform="translate(-52.187 -95.979)"/><path d="m458.415 263.286s5.513-17.1 13.048-24.114c7.655-7.128 17.344-4.061 18.8 11.967 0 0-4.855-3.895-8.162-1.776 0 0 7.323 17.243-12.817 21.308 0-.001-.613-11.271-10.869-7.385z" fill="#e27954" transform="translate(-45.99 -93.056)"/><path d="m540.166 203.079s.665-15.579-30-30.6-87.933-5.123-108.871 0c0 0 11.08-21.927 0-25.736-13.555-4.657-17.747 34-17.747 34s-1.47-32.139-14.475-23.288-7.32 39.965 12.2 53.751c0 0 44.562-15.184 94.219 0 0 0 6.748 43.11 30.02 53.967l-.5 45.593s13.4-29.956 35.163-28.755c-.009-.003 26.661-62.184-.009-78.932z" fill="#2b386d" transform="translate(-103.561 -146.35)"/><ellipse cx="34.421" cy="23.786" fill="#404041" rx="34.421" ry="23.786" transform="matrix(.257 -.966 .966 .257 384.391 177.96)"/><path d="m493.731 271.5s13.582-112.763-78.6-111.752c0 0 1.907-4.112 22.867-4.112s92.354 20.264 71.796 115.864c0 0-6.394-5.673-16.063 0z" fill="#6d6e70" transform="translate(-71.85 -140.804)"/><path d="m483.354 251.192s-16.534 46.687-63.833 45.062" fill="none" stroke="#6d6e70" stroke-linecap="round" stroke-linejoin="round" stroke-width="1.749" transform="translate(-69.228 -83.707)"/><path d="m422.8 284.348h-5.909a3.691 3.691 0 0 1 -3.69-3.69 3.691 3.691 0 0 1 3.69-3.69h5.909a3.691 3.691 0 0 1 3.692 3.69 3.691 3.691 0 0 1 -3.692 3.69z" fill="#404041" transform="translate(-73.007 -68.306)"/><path d="m491.176 250.633c-1.883 14-11.531 25.34-21.549 25.34s-16.611-11.344-14.729-25.34 11.531-25.34 21.549-25.34 16.61 11.345 14.729 25.34z" fill="#808184" transform="translate(-48.282 -99.182)"/><path d="m414.586 328.611-17.994 32.139s-8.486-31.4 22.665-53.8c0 .002-6.026 11.881-4.671 21.661z" fill="#0172ce" transform="translate(-83.56 -50.39)"/><path d="m418.129 336.093 16.758-11.127-15.552-3.144s-6.855 6.221-8.15 12.85z" fill="#0172ce" transform="translate(-74.21 -41.505)"/><path d="m450.763 303.418s-7.21 24.867-34.476 29.731l17.181 38.117s38.167-23.75 44.294-47c0-.003-15.411-25.43-26.999-20.848z" fill="#0172ce" transform="translate(-71.161 -52.832)"/><path d="m313.556 361.057c-12.045 11.836-36.275 7.489-43.331 5.911-1.272-10.8-1.97-17.382-1.97-17.382 21.966 9.208 39.529-8.957 39.529-8.957z" fill="#ffb6b9" transform="translate(-159.61 -30.268)"/><path d="m259.01 336.307c2.8.895 6.023 1.9 9.4 2.74a2.852 2.852 0 0 0 -.754-.029c-2.889-.783-5.782-1.69-8.646-2.711z" fill="#ff7f6a" transform="translate(-165.135 -32.85)"/><path d="m512.116 356.689a81.434 81.434 0 0 0 -8.206-12.4 311.225 311.225 0 0 0 -22.747 73.108c-7.23 40.987 15.1 175.13 15.1 175.13l15.85.519z" fill="#0172ce" transform="translate(-33.259 -28.084)"/><path d="m425.546 381.588s15.459 5.591 53.663.4l-5.824 56.712-24.771 11.98s-22.94-7.27-23.894-11.981c-2.906-14.378.826-57.111.826-57.111z" fill="#0172ce" transform="translate(-66.784 -5.795)"/></svg>